<svg xmlns="http://www.w3.org/2000/svg" width="23.927" height="23.922" viewBox="0 0 20.068 21.145">
  <path id="icons8-twitterx" d="M4.553,3a.941.941,0,0,0-.771,1.48l7.035,10.054L3.754,22.789a.821.821,0,0,0,.624,1.356h.78a1.176,1.176,0,0,0,.895-.413l6.154-7.209,4.633,6.619a2.355,2.355,0,0,0,1.925,1h3.917a.94.94,0,0,0,.771-1.478L16.03,12.045l6.727-7.881A.706.706,0,0,0,22.22,3h-.993a1.175,1.175,0,0,0-.893.411L14.646,10.06,10.415,4A2.346,2.346,0,0,0,8.49,3Z" transform="translate(-3.555 -3)" fill="#fff"/>
</svg>
