<svg xmlns="http://www.w3.org/2000/svg" width="149.535" height="104.755" viewBox="0 0 149.535 104.755">
  <g id="Credit_Suisse_Logo" transform="translate(-0.719 -0.903)">
    <g id="g3801" transform="translate(0.719 0.903)">
      <path id="path3795" d="M68.553,83.164a118.824,118.824,0,0,1,23.653,10.4C71.761,59.974,35.68,23.59,0,0,9.221,9.2,24.054,29.187,28.063,50.378A480.786,480.786,0,0,1,68.553,83.164Z" transform="translate(57.328 0)" fill="rgba(49,23,24,0.2)"/>
      <path id="path3797" d="M125.882,81.165c-17.639-5.6-32.473-6-43.3-4.8,4.009-9.2,4.41-18.792,2.806-27.988A480.052,480.052,0,0,0,0,0C20.847,13.994,44.1,55.176,53.72,99.157c20.847-6,52.518-10.4,93.81,3.6q-10.223-10.8-21.648-21.591Z" transform="translate(0 1.999)" fill="rgba(49,23,24,0.2)"/>
      <path id="path3799" d="M2.405,0A51.624,51.624,0,0,1,0,27.988a103.59,103.59,0,0,1,43.3,4.8A430.421,430.421,0,0,0,2.405,0Z" transform="translate(82.585 50.378)" fill="none"/>
    </g>
  </g>
</svg>
