<svg xmlns="http://www.w3.org/2000/svg" width="211.374" height="48.569" viewBox="0 0 211.374 48.569">
  <g id="Group_4289" data-name="Group 4289" transform="translate(-218 -327.277)">
    <path id="Path_1996" data-name="Path 1996" d="M358.235,327.291c7.06.257,12.583,8.227,9.843,14.269l-3.15,6.94-16.039.008,3.013-6.738c.723-1.541-.151-2.028-1.806-2.2l-31.741.009-.45-.132,5.569-12.167,34.76.014Z" transform="translate(-60.952)" fill="rgba(49,23,24,0.2)" fill-rule="evenodd"/>
    <path id="Path_1997" data-name="Path 1997" d="M628.605,429.511a12.491,12.491,0,0,1,2.843.376c.108.414-.474,1.6-.886,1.684-.634.127-2.77-.2-3.074.268-.4.614,1.279,2.851,1.279,3.85a1.862,1.862,0,0,1-.426,1.335l-.357.322c-.5.3-5.51.778-5.943.272-.211-.245.119-.855.225-1.078a.841.841,0,0,1,.783-.558c.665-.011,1.33-.02,1.994-.032l.784-.033c1.957-.914-4.512-6.243,1.864-6.243a4.643,4.643,0,0,0,.915-.164Z" transform="translate(-246.462 -62.373)" fill="rgba(49,23,24,0.2)" fill-rule="evenodd"/>
    <path id="Path_1998" data-name="Path 1998" d="M570.393,429.68c2.175,0,4.525.886,3.245,3.381a2.8,2.8,0,0,1-1.055,1.219c-.325.187-1.266.264-1.439.6-.123.237.347,1.456.425,1.732.1.359.472,1.03-.075,1.213a2.551,2.551,0,0,1-1.867-.152,17.316,17.316,0,0,1-1.03-4.181c.2-.267,1.018-.149,1.371-.149l.261-.033.2-.032c.468-.188,1.773-1.088.948-1.719a3.306,3.306,0,0,0-1.795-.122c-.57.091-2.361,4.238-2.7,4.987-.186.41-.351,1.077-.736,1.353a1.644,1.644,0,0,1-.915.143c-.355,0-1.115.118-1.3-.176l-.021-.038a61.73,61.73,0,0,1,3.326-7.621.9.9,0,0,1,.744-.336l2.419-.065Z" transform="translate(-211.034 -62.476)" fill="rgba(49,23,24,0.2)" fill-rule="evenodd"/>
    <path id="Path_1999" data-name="Path 1999" d="M611.608,429.7a5.116,5.116,0,0,1,2,.116c.336.2-.42,1.636-.669,1.786-.7.42-2.73-.326-3.261.309-.67.8,2.3,3.307.934,5.119a1.688,1.688,0,0,1-1.16.694,18.711,18.711,0,0,1-1.926.18c-.583,0-3.281.186-3.338-.333.072-.218.145-.435.217-.654.111-.234.23-.583.473-.72.479-.276,2.489-.09,3.171-.09,1.7-.91-2.12-3.818-.554-5.651a1.536,1.536,0,0,1,1.175-.56c.764-.408,2.049-.055,2.943-.2Z" transform="translate(-235.611 -62.467)" fill="rgba(49,23,24,0.2)" fill-rule="evenodd"/>
    <path id="Path_2000" data-name="Path 2000" d="M432.345,429.882c.365,0,1.3-.133,1.495.15.256.371-2.616,4.252-3,4.909a17.949,17.949,0,0,1-2.086,2.991q-.507.032-1.015.06c-.25.008-.607.057-.793-.1-.327-.272-.175-1.859-.191-2.389-.008-.239.043-1.448-.351-1.22-.879.5-1.964,3.479-2.857,3.7-.371.092-1.346.135-1.61-.138-.3-.307-.18-3.843-.18-4.531,0-.574-.278-3.3.393-3.3.343-.08,1.272-.131,1.516.113.4.4.16,2.937.23,3.676.009.1.047.361.182.361l1.941-2.955a3.95,3.95,0,0,1,.866-1.121,1.748,1.748,0,0,1,.953-.173c1.306,0,1.027,1.446,1.128,2.485a14.036,14.036,0,0,0,.18,1.862c1.33-1.174,1.726-3.348,3.2-4.38Z" transform="translate(-124.274 -62.58)" fill="rgba(49,23,24,0.2)" fill-rule="evenodd"/>
    <path id="Path_2001" data-name="Path 2001" d="M450,430.195c.438,0,1.678-.178,1.909.163.01.02.02.042.029.062l.013.065a78.249,78.249,0,0,1-3.487,7.71,3.242,3.242,0,0,1-2.013.036.314.314,0,0,1-.213-.263A62.462,62.462,0,0,1,450,430.195Z" transform="translate(-139.245 -62.762)" fill="rgba(49,23,24,0.2)" fill-rule="evenodd"/>
    <path id="Path_2002" data-name="Path 2002" d="M589.945,430.267l5.292.023c.186.033.3.126.3.325,0,2.738-3.649.471-4.635,2.043-1.107,1.763,3.638-.29,3.086,1.594-.072.247-.167.551-.425.66l-.353.056c-1.157.053-3.584-.466-3.677,1.052-.03.478,1.59.328,1.978.328,1.03-.238,1.76.016,1.265,1.036a1.483,1.483,0,0,1-.445.65,23.262,23.262,0,0,1-5.735-.008c-.22-.193-.116-.527-.046-.759.407-1.376,2.342-6.3,3.392-7Z" transform="translate(-224.801 -62.834)" fill="rgba(49,23,24,0.2)" fill-rule="evenodd"/>
    <path id="Path_2003" data-name="Path 2003" d="M321.161,430.319c.369,0,1.183-.117,1.342.221-.016.108-.033.216-.049.324q-2.389,3.575-4.776,7.149a1.013,1.013,0,0,1-.669.393,2.674,2.674,0,0,1-1.4-.1c-.413-.289-.143-2.846-.263-3.508-.016-.089-.076-.365-.2-.365l-1.875,2.659a4.193,4.193,0,0,1-.872,1.156,2.511,2.511,0,0,1-1.681.119c-.4-.146-.311-2.682-.311-3.248,0-.722-.24-4.51.21-4.657.342-.112,1.444-.164,1.682.108.417.475.167,2.6.2,3.371l.126.623c1.03-.8,2.048-4.152,3.432-4.152a1.753,1.753,0,0,1,1.193.113c.294.284.327,2.874.345,3.45,0,.153,0,.485.189.5.677.036,2.283-4.125,3.372-4.125v-.032Z" transform="translate(-56.338 -62.854)" fill="rgba(49,23,24,0.2)" fill-rule="evenodd"/>
    <path id="Path_2004" data-name="Path 2004" d="M383.821,430.35c.216.027.489.091.526.334.049.336-.217.726-.332,1q-1.028,2.5-2.057,5.007a1.539,1.539,0,0,0,.719.164c.379-.088,2.146-.107,2.318.172.118.191-.051.5-.124.657a1.528,1.528,0,0,1-.549.73,5.122,5.122,0,0,1-2,.14c-2.531,0-3.683-.533-2.513-3.066q.753-1.734,1.5-3.465c.2-.434.334-1.113.719-1.435.215-.183.633-.141.945-.141h.654l.2-.1Z" transform="translate(-98.437 -62.885)" fill="rgba(49,23,24,0.2)" fill-rule="evenodd"/>
    <path id="Path_2005" data-name="Path 2005" d="M362.676,430.491c2.085,0,3.679,1.5,2.427,3.534a2.879,2.879,0,0,1-1,1.022c-.313.179-1.26.3-1.407.629-.192.424.6,1.973.645,2.5-.033.083-.064.167-.1.25-.012.006-.023.015-.035.022a2.823,2.823,0,0,1-2.061-.124,12.533,12.533,0,0,1-.967-3.965c.051-.183.288-.244.467-.244l1.308-.033c.515-.274,1.528-.781,1.152-1.606-.195-.426-1.829-.428-2.218-.2-.56.326-2.472,5.05-3,5.983-.275.486-.779.376-1.328.412-.321.021-.99.111-1.14-.21-.007-.018-.014-.035-.02-.054a70.779,70.779,0,0,1,3.563-7.79c.51-.315,2.927,0,3.709-.13Z" transform="translate(-83.829 -62.96)" fill="rgba(49,23,24,0.2)" fill-rule="evenodd"/>
    <path id="Path_2006" data-name="Path 2006" d="M510.4,430.462c.935,0,2.094-.283,1.535.912a1.673,1.673,0,0,1-.564.8c-.524.3-2.178.107-2.9.12a.963.963,0,0,0-.853.32c-.092.179-.186.358-.278.536-.11.775,1.889.516,2.471.516.864-.216.944.428.682,1.009-.566,1.262-2.852-.005-3.834.678a1.422,1.422,0,0,0-.48.659c-.4,1.115,3.368.2,3.354.983a1.735,1.735,0,0,1-.679,1.287c-.569.284-3.565.09-4.436.09-.4,0-1.136.12-1.322-.255-.289-.576,2.654-7.219,3.279-7.54.671-.345,3.1.026,4.025-.116Z" transform="translate(-173.926 -62.931)" fill="rgba(49,23,24,0.2)" fill-rule="evenodd"/>
    <path id="Path_2007" data-name="Path 2007" d="M482.474,430.548c.608,0,3.548-.189,3.592.33a1.637,1.637,0,0,1-.285.784c-.541,1.1-2.1.668-3.244.706-.233.023-.466.048-.7.071-.256.151-.834.96-.421,1.2a4.638,4.638,0,0,0,1.775.113,2.4,2.4,0,0,1,1.185.043c.309.15.223.471.133.728a1.249,1.249,0,0,1-.324.637c-1,.718-4.165-.74-4.165,1.337a4.084,4.084,0,0,0,1.732.164c.908-.21,2.148-.168,1.586.956q-.214.343-.426.686a24.2,24.2,0,0,1-5.313.216.657.657,0,0,1-.523-.429c-.175-.648,2.58-6.942,3.119-7.322s1.591-.112,2.275-.221Z" transform="translate(-158.059 -62.985)" fill="rgba(49,23,24,0.2)" fill-rule="evenodd"/>
    <path id="Path_2008" data-name="Path 2008" d="M530.777,430.738c.312.011,1.381-.041,1.547.2.115.166-.1.381-.205.489-.6.6-3.779,3.073-3.888,3.551-.167.725,1.122,2.879.754,3.328-.018.016-.034.033-.053.049a2.751,2.751,0,0,1-1.519.108c-.931-.155-.834-1.773-1.455-1.853-.487-.064-2,1.553-2.551,1.815a3.047,3.047,0,0,1-1.129.1c-.294,0-1.014.1-1.126-.193-.086-.218,1.8-1.779,2.1-2.033.436-.372,1.681-1.193,1.89-1.685.194-.46-.794-2.67-.953-3.253a.413.413,0,0,1,.375-.552c2.613-.6,2,2.215,2.743,2.234.806.018,1.935-2.015,2.853-2.2l.517-.033c.033-.021.065-.042.1-.066Z" transform="translate(-184.951 -63.11)" fill="rgba(49,23,24,0.2)" fill-rule="evenodd"/>
    <path id="Path_2009" data-name="Path 2009" d="M229.316,391.414h36.159l1.746-3.469H231.062l-1.746,3.469Z" transform="translate(-6.904 -37.014)" fill="rgba(49,23,24,0.2)" fill-rule="evenodd"/>
    <path id="Path_2010" data-name="Path 2010" d="M662.906,392.085h36.159l1.746-3.469H664.653l-1.747,3.469Z" transform="translate(-271.437 -37.423)" fill="rgba(49,23,24,0.2)" fill-rule="evenodd"/>
    <path id="Path_2011" data-name="Path 2011" d="M223.906,402.592h36.158l1.746-3.469H225.652l-1.746,3.469Z" transform="translate(-3.603 -43.833)" fill="rgba(49,23,24,0.2)" fill-rule="evenodd"/>
    <path id="Path_2012" data-name="Path 2012" d="M657.5,403.263h36.159l1.745-3.469H659.242l-1.746,3.469Z" transform="translate(-268.136 -44.243)" fill="rgba(49,23,24,0.2)" fill-rule="evenodd"/>
    <path id="Path_2013" data-name="Path 2013" d="M218,414.428h36.158l1.747-3.47H219.747L218,414.428Z" transform="translate(0 -51.054)" fill="rgba(49,23,24,0.2)" fill-rule="evenodd"/>
    <path id="Path_2014" data-name="Path 2014" d="M651.592,415.1H687.75l1.746-3.469H653.338l-1.746,3.469Z" transform="translate(-264.534 -51.465)" fill="rgba(49,23,24,0.2)" fill-rule="evenodd"/>
    <path id="Path_2015" data-name="Path 2015" d="M454.809,327.551h17.526l-5.663,11.8H474l6.14-11.743h17.228L487.3,348.594H444.854l9.955-21.043Z" transform="translate(-138.403 -0.167)" fill="rgba(49,23,24,0.2)" fill-rule="evenodd"/>
    <path id="Path_2016" data-name="Path 2016" d="M562.875,348.843h18.19l10.255-21.155H573.13l-10.255,21.155Z" transform="translate(-210.408 -0.251)" fill="rgba(49,23,24,0.2)" fill-rule="evenodd"/>
    <path id="Path_2017" data-name="Path 2017" d="M426.974,400.833h17.267l5.777-12.126H432.752l-5.778,12.126Z" transform="translate(-127.495 -37.479)" fill="rgba(49,23,24,0.2)" fill-rule="evenodd"/>
    <path id="Path_2018" data-name="Path 2018" d="M491.176,400.833h17.267l5.778-12.126H496.953l-5.777,12.126Z" transform="translate(-166.664 -37.479)" fill="rgba(49,23,24,0.2)" fill-rule="evenodd"/>
    <path id="Path_2019" data-name="Path 2019" d="M341.185,429.928c1.3,0,3.386-.084,4.2.864a1.385,1.385,0,0,1,.251,1.115c-.179.969-2.31,5.473-3.059,5.966-1.16.762-3.716.716-5.11.308a1.437,1.437,0,0,1-.972-.782c-.267-.94,1.778-5.6,2.379-6.353a2.22,2.22,0,0,1,1.433-.858l.882-.261Zm.262,1.831a2.11,2.11,0,0,0-.984.48c-.43.5-1.99,3.685-1.165,4.072a2.824,2.824,0,0,0,2.086-.142c.415-.307,2.006-3.576,1.73-4s-1.146-.413-1.668-.413Z" transform="translate(-72.277 -62.626)" fill="rgba(49,23,24,0.2)" fill-rule="evenodd"/>
    <path id="Path_2020" data-name="Path 2020" d="M398.5,430.475c1.512,0,4.894-.427,5.707.693a1.891,1.891,0,0,1,.324,1.429,10.094,10.094,0,0,1-1.185,2.621,15.106,15.106,0,0,1-1.177,2.454,2.347,2.347,0,0,1-.889.742c-.916.422-4.894.332-6.148.253-.154-.01-.622-.059-.622-.281q.661-1.394,1.32-2.789c.526-1.1,1.779-4.5,2.669-5.122Zm1.438,1.8a14.906,14.906,0,0,0-1.977,3.936c-.026.15,0,.349.139.412a2.547,2.547,0,0,0,2.21-.379c.516-.44,2.082-3.079,1.588-3.643-.407-.466-1.31-.326-1.961-.326Z" transform="translate(-107.69 -62.912)" fill="rgba(49,23,24,0.2)" fill-rule="evenodd"/>
    <path id="Path_2021" data-name="Path 2021" d="M460.284,430.183l.36.033c.675-.012,1.352-.022,2.027-.033,3.63,0,1.767,3.048.956,4.741-.516,1.076-.791,2.487-1.975,3.092-1.114.569-2.82.259-4.082.221-.683-.021-2,.318-2.582-.1l-.089-.151a78.468,78.468,0,0,1,3.626-7.6c.376-.341,1.246-.125,1.758-.207Zm.687,1.8c-.332.046-.715-.006-.954.219-.332.31-1.905,3.78-1.731,4.055.147.232.649.172.919.172q.409-.08.818-.164a3.1,3.1,0,0,0,.766-.5c.439-.468,1.925-3,1.411-3.571-.233-.258-.861-.2-1.229-.207Z" transform="translate(-144.532 -62.783)" fill="rgba(49,23,24,0.2)" fill-rule="evenodd"/>
    <path id="Path_2022" data-name="Path 2022" d="M547.9,430.594c1.436,0,5.328-.165,5.3,1.633-.028,1.7-1.324,3.926-3.175,4.015l-2.988.081c-1.055.459-.005,2.015-2.143,2.049a2.5,2.5,0,0,1-1.053-.087c-.212-.114-.144-.437-.083-.621a35.789,35.789,0,0,1,2.374-5.206,5.565,5.565,0,0,1,.829-1.523c.251-.236.641-.2.94-.34Zm1.11,1.668c-.352.2-1.489,1.75-.891,2,1.019.421,3.06-.237,2.659-1.553-.152-.5-1.282-.445-1.768-.445Z" transform="translate(-198.707 -63.031)" fill="rgba(49,23,24,0.2)" fill-rule="evenodd"/>
    <path id="Path_2023" data-name="Path 2023" d="M556.546,388.766h39.785l-5.872,12.427H561.417c-4.765-.03-8.741-3.354-6.418-9.332l1.548-3.1Z" transform="translate(-205.187 -37.514)" fill="rgba(49,23,24,0.2)" fill-rule="evenodd"/>
    <path id="Path_2024" data-name="Path 2024" d="M650.918,427.751a3.657,3.657,0,0,1,2.25.526,2.921,2.921,0,1,1-4.023.7,4.4,4.4,0,0,1,1.773-1.231Zm.229.719a3.052,3.052,0,0,0-1.465.948,2.288,2.288,0,0,0,1.1,3.385,4.416,4.416,0,0,0,1.374.046,3.44,3.44,0,0,0,1.048-.708c1.42-1.715-.036-3.672-2.061-3.672Z" transform="translate(-262.728 -61.299)" fill="rgba(49,23,24,0.2)" fill-rule="evenodd"/>
    <path id="Path_2025" data-name="Path 2025" d="M653.394,431.249a3.236,3.236,0,0,1,1.8.23c.086.132.172.265.257.4a21,21,0,0,1-.077,2.321c-.28.2-.475-.32-.523-.5-.114-.4-.635-.843-1.036-.427-.212.218-.028.679-.293.861l-.071.026-.057-.012c-.461-.221-.261-2.523,0-2.895Zm.915.589c-.268.057-.888.388-.417.689.249.158.894.054.949-.287.045-.28-.333-.346-.531-.4Z" transform="translate(-265.465 -63.425)" fill="rgba(49,23,24,0.2)" fill-rule="evenodd"/>
    <path id="Path_2026" data-name="Path 2026" d="M327.1,361.706h14.322c2.1.173,2.7.965,1.781,2.82l-2.387,4.925c-.751,1.9-.178,2.8,1.644,2.792h20.407c-2.622,6.3-8.93,12.28-17.216,12.17H316.559L327.1,361.706Z" transform="translate(-60.131 -21.005)" fill="rgba(49,23,24,0.2)" fill-rule="evenodd"/>
  </g>
</svg>
