<svg id="Group_4288" data-name="Group 4288" xmlns="http://www.w3.org/2000/svg" width="143.654" height="97.168" viewBox="0 0 143.654 97.168">
  <path id="Path_1885" data-name="Path 1885" d="M701.723,886.655a12.443,12.443,0,0,0-6.988-2.135h-.344a12.487,12.487,0,1,0,0,24.973h.344a12.442,12.442,0,0,0,6.988-2.135v1.563h6.186V876.5h-6.186Zm-6.873,17.339a6.988,6.988,0,1,1,6.988-6.988A6.988,6.988,0,0,1,694.85,903.994Z" transform="translate(-653.896 -812.325)" fill="rgba(49,23,24,0.2)"/>
  <path id="Path_1886" data-name="Path 1886" d="M1106.5,886.655a12.443,12.443,0,0,0-6.988-2.135h-.344a12.487,12.487,0,0,0,0,24.973h.344a12.443,12.443,0,0,0,6.988-2.135v1.563h6.186V876.5H1106.5Zm-6.873,17.339a6.988,6.988,0,1,1,6.988-6.988A6.988,6.988,0,0,1,1099.631,903.994Z" transform="translate(-1021.103 -812.325)" fill="rgba(49,23,24,0.2)"/>
  <rect id="Rectangle_4681" data-name="Rectangle 4681" width="6.186" height="5.613" transform="translate(56.82 63.755)" fill="rgba(49,23,24,0.2)"/>
  <rect id="Rectangle_4682" data-name="Rectangle 4682" width="6.186" height="24.4" transform="translate(56.82 71.851)" fill="rgba(49,23,24,0.2)"/>
  <path id="Path_1887" data-name="Path 1887" d="M1708.755,970.783q-.3-.094-.622-.174a7.274,7.274,0,0,0-1.124-.181c-1.805-.157-8.366-.88-8.366-3.091,0-2.564,4.195-2.22,4.195-2.22s4.282-.458,4.168,3.322h5.957a9.272,9.272,0,0,0-.164-1.747,6.915,6.915,0,0,0-1.951-3.48,10.064,10.064,0,0,0-6.935-2.791c-8.248,0-10.713,3.347-11.164,7.015-.029.236-.048.473-.062.711a6.709,6.709,0,0,0,5.957,6.9c6.3,1.068,8.821,1.041,8.821,3.288s-2.406,2.82-4.582,2.82-4.582-1.6-4.582-4.01H1692s-.289,8.477,10.624,8.477c6.65,0,9.333-2.3,10.492-4.61A7.326,7.326,0,0,0,1708.755,970.783Z" transform="translate(-1570.227 -888.455)" fill="rgba(49,23,24,0.2)"/>
  <path id="Path_1888" data-name="Path 1888" d="M1405.771,965.023a12.441,12.441,0,0,0-6.988-2.135h-.344a12.446,12.446,0,0,0-8.4,3.243q-.222.2-.434.414a12.487,12.487,0,0,0,8.83,21.316h.344a12.442,12.442,0,0,0,6.988-2.135v1.563h6.186v-24.4h-6.186Zm0,11.606a6.988,6.988,0,1,1,0-2.51Z" transform="translate(-1292.59 -890.694)" fill="rgba(49,23,24,0.2)"/>
  <path id="Path_1889" data-name="Path 1889" d="M399.988,965.023A12.441,12.441,0,0,0,393,962.888h-.344a12.446,12.446,0,0,0-8.4,3.243q-.222.2-.434.414a12.487,12.487,0,0,0,8.83,21.316H393a12.443,12.443,0,0,0,6.988-2.135v1.563h6.186v-24.4h-6.186Zm0,11.606a6.988,6.988,0,1,1,0-2.51Z" transform="translate(-380.17 -890.694)" fill="rgba(49,23,24,0.2)"/>
  <path id="Path_1890" data-name="Path 1890" d="M580.251,680.761l-11.276-18.978-21.228,11.911,4.2,7.068Z" transform="translate(-532.192 -618.896)" fill="rgba(49,23,24,0.2)"/>
  <path id="Path_1891" data-name="Path 1891" d="M1136.307,249.616l-36.672-61.724L1078.406,199.8l29.6,49.813Z" transform="translate(-1013.591 -187.892)" fill="rgba(49,23,24,0.2)"/>
  <path id="Path_1892" data-name="Path 1892" d="M860.549,468.557l-23.776-40.017L815.545,440.45l16.7,28.107Z" transform="translate(-775.131 -406.733)" fill="rgba(49,23,24,0.2)"/>
</svg>
