<svg xmlns="http://www.w3.org/2000/svg" width="110.281" height="110.281" viewBox="0 0 110.281 110.281">
  <g id="Group_4194" data-name="Group 4194" transform="translate(-975.615 -539.399)">
    <path id="Path_1913" data-name="Path 1913" d="M1030.661,539.4a55.141,55.141,0,1,1-55.046,55.126A54.982,54.982,0,0,1,1030.661,539.4Zm-.006,1.928c-29.22.094-53.224,24.219-53.093,53.362a53.579,53.579,0,0,0,53.151,53.053c29.075.065,53.293-24.173,53.234-53.277A53.4,53.4,0,0,0,1030.656,541.327Z" fill="rgba(49,23,24,0.2)"/>
    <path id="Path_1914" data-name="Path 1914" d="M1033.86,546.411a51.143,51.143,0,1,1-51.25,50.811A51.053,51.053,0,0,1,1033.86,546.411Zm-33.054,50.826c-.165,17.9,14.438,33.084,31.954,33.229,18.686.154,33.758-14.126,33.924-32.143.173-18.763-14.38-33.813-32.835-33.957C1015.943,564.226,1000.973,579.118,1000.806,597.237Zm63.719-37.652-8.292,10.712,2.372,2.894,8.038-3.158-5.118,7.585c1.347.752,2.838,2.229,3.631,1.919,3.8-1.484,7.4-3.452,11.319-5.367-3.718-4.637-6.227,1.281-9.388.531l4.49-6.536-2.22-2.566-7.871,3.209,5.026-6.835Zm-72.045,11.7,10.168,8.548c2.1-2.461,4.07-4.736,5.993-7.054,1.416-1.707,2.966-3.291,1.547-5.906-1.143-2.107-4.364-.382-5.148-3.248-.248-.908-2.083-1.762-3.278-1.9-.826-.1-1.971.924-2.676,1.711C996.861,565.919,994.778,568.529,992.479,571.283Zm45.968-16.654.639.117c0,2.188-.071,4.382.058,6.563.027.451.8.859,1.223,1.287.426-.432,1.211-.854,1.221-1.3.079-3.317.066-6.637.059-9.873a2.316,2.316,0,0,0-2.779-2.306c-1.143.28-1.837,1.224-2.267,2.812a72.56,72.56,0,0,1-2.612,6.821c-1.032-2.687-2.021-4.8-2.649-7.015-.017-.058-.034-.116-.051-.171a2.427,2.427,0,0,0-4.741.73v10.048c1.636.029,1.636.029,2.724-8.26,1,2.563,1.733,4.734,2.719,6.781.358.743,1.334,1.648,2.023,1.643a3.014,3.014,0,0,0,2.029-1.651C1036.992,558.851,1037.662,556.713,1038.448,554.629Z" transform="translate(-2.717 -2.723)" fill="rgba(49,23,24,0.2)"/>
    <path id="Path_1915" data-name="Path 1915" d="M1046.288,610.091H1015.1c-1.977-14.221,12.356-32.543,31.107-31.679v31.758Z" transform="translate(-15.264 -15.141)" fill="rgba(49,23,24,0.2)"/>
    <path id="Path_1916" data-name="Path 1916" d="M1066.075,630.3h31.507c1.237,12.882-10.5,31.241-31.42,31.4q0-15.739,0-31.482Z" transform="translate(-35.134 -35.275)" fill="rgba(49,23,24,0.2)"/>
    <path id="Path_1917" data-name="Path 1917" d="M1014.625,589.96l-2.508-2.252a45.252,45.252,0,0,1,3.789-4.43c.546-.5,1.722-.323,2.612-.454-.035.891.252,1.993-.168,2.631A49.4,49.4,0,0,1,1014.625,589.96Z" transform="translate(-14.177 -16.866)" fill="rgba(49,23,24,0.2)"/>
    <path id="Path_1918" data-name="Path 1918" d="M1007.668,584.3l-2.446-2.017a41.5,41.5,0,0,1,3.662-4.3c.5-.462,1.682-.19,2.553-.253-.076.794.113,1.767-.28,2.346A52.871,52.871,0,0,1,1007.668,584.3Z" transform="translate(-11.499 -14.881)" fill="rgba(49,23,24,0.2)"/>
  </g>
</svg>
