<svg xmlns="http://www.w3.org/2000/svg" width="107.157" height="110.257" viewBox="0 0 107.157 110.257">
  <g id="Group_4192" data-name="Group 4192" transform="translate(-1488 -7085)">
    <path id="Path" d="M11.726,48.114H36.2c7.965,0,11.726-4.59,11.726-14.418V14.364C47.922,4.536,44.161,0,36.2,0H11.726C3.761,0,0,4.536,0,14.364V33.7C0,43.524,3.761,48.114,11.726,48.114Z" transform="translate(1489 7086)" fill="rgba(49,23,24,0.2)"/>
    <path id="Path-2" data-name="Path" d="M11.726,48.114H36.2c7.965,0,11.726-4.59,11.726-14.418V14.364C47.922,4.536,44.161,0,36.2,0H11.726C3.761,0,0,4.536,0,14.364V33.7C0,43.524,3.761,48.114,11.726,48.114Z" transform="translate(1546.235 7086)" fill="none" stroke="#c0c1c1" stroke-width="2"/>
    <path id="Path-3" data-name="Path" d="M11.726,48.114H36.2c7.965,0,11.726-4.59,11.726-14.418V14.364C47.922,4.536,44.161,0,36.2,0H11.726C3.761,0,0,4.536,0,14.364V33.7C0,43.524,3.761,48.114,11.726,48.114Z" transform="translate(1489 7146.143)" fill="none" stroke="#c0c1c1" stroke-width="2"/>
    <path id="Path-4" data-name="Path" d="M11.726,48.114H36.2c7.965,0,11.726-4.59,11.726-14.418V14.364C47.922,4.536,44.161,0,36.2,0H11.726C3.761,0,0,4.536,0,14.364V33.7C0,43.524,3.761,48.114,11.726,48.114Z" transform="translate(1546.235 7146.143)" fill="rgba(49,23,24,0.2)"/>
  </g>
</svg>
