<svg xmlns="http://www.w3.org/2000/svg" width="105.157" height="128.968" viewBox="0 0 105.157 128.968">
  <g id="Group_4178" data-name="Group 4178" transform="translate(-134.812 -221.334)">
    <path id="Path_1879" data-name="Path 1879" d="M236.551,330.229c-20.035,11.995-18.068,41.162,3.418,50.907a74.075,74.075,0,0,1-15.784,27.257c-6.336,7.093-12.666,8.4-21.563,4.831-3.875-1.556-7.755-2.98-12.023-3.1-4.734-.13-9.025,1.4-13.355,3.009a37.53,37.53,0,0,1-7.689,2.129c-3.821.538-7.115-1.146-10.061-3.434-3.681-2.859-6.45-6.549-9.212-10.257a78.437,78.437,0,0,1-12.923-27.4c-2.939-11.274-3.869-22.636.129-33.879,3.645-10.253,10.368-17.6,20.866-21.164,7.087-2.4,13.909-1.281,20.656,1.425a50.343,50.343,0,0,0,7.578,2.533,9.273,9.273,0,0,0,4.519-.352c4.289-1.306,8.485-2.914,12.765-4.254C215.293,314.9,230.531,320.378,236.551,330.229Z" transform="translate(0 -65.063)" fill="rgba(49,23,24,0.2)"/>
    <path id="Path_1880" data-name="Path 1880" d="M323.358,221.334c1.752,14.608-11.861,31.46-25.6,29.4C295.817,236.289,309.549,222,323.358,221.334Z" transform="translate(-110.256 0)" fill="rgba(49,23,24,0.2)"/>
  </g>
</svg>
