<svg xmlns="http://www.w3.org/2000/svg" xmlns:xlink="http://www.w3.org/1999/xlink" width="78" height="78" viewBox="0 0 78 78">
  <defs>
    <filter id="Rectangle_1496" x="0" y="0" width="78" height="78" filterUnits="userSpaceOnUse">
      <feOffset dy="3" input="SourceAlpha"/>
      <feGaussianBlur stdDeviation="3" result="blur"/>
      <feFlood flood-opacity="0.161"/>
      <feComposite operator="in" in2="blur"/>
      <feComposite in="SourceGraphic"/>
    </filter>
  </defs>
  <g id="Group_16444" data-name="Group 16444" transform="translate(1933.94 3859.064) rotate(180)">
    <g transform="matrix(-1, 0, 0, -1, 1933.94, 3859.06)" filter="url(#Rectangle_1496)">
      <rect id="Rectangle_1496-2" data-name="Rectangle 1496" width="60" height="60" rx="29" transform="translate(69 66) rotate(180)" fill="#fff"/>
    </g>
    <path id="Icon_ionic-ios-arrow-down" data-name="Icon ionic-ios-arrow-down" d="M13.728,11.572,24.105.608a1.881,1.881,0,0,1,2.77,0,2.171,2.171,0,0,1,0,2.933L15.117,15.962a1.884,1.884,0,0,1-2.7.06L.572,3.55A2.131,2.131,0,0,1,0,2.083,2.131,2.131,0,0,1,.572.617a1.881,1.881,0,0,1,2.77,0Z" transform="translate(1886.658 3836.787) rotate(-90)" fill="#0b352a"/>
  </g>
</svg>
