<svg xmlns="http://www.w3.org/2000/svg" width="178" height="178" viewBox="0 0 178 178">
  <g id="Group_4275" data-name="Group 4275" transform="translate(-548 -6486.743)">
    <g id="Path_1994" data-name="Path 1994" transform="translate(548 6486.743)" fill="none" stroke-linecap="round" stroke-dasharray="360">
      <path d="M89,0A89,89,0,1,1,0,89,89,89,0,0,1,89,0Z" stroke="none"/>
      <path d="M 89 0 C 138.1533203125 0 178 39.84664916992188 178 89 C 178 138.1654205322266 138.0959320068359 178.0196228027344 88.96135711669922 177.9999847412109 C 88.94670867919922 177.9999847412109 88.93672180175781 177.9999847412109 88.92207336425781 177.9999694824219 C 88.91040802001953 177.9999542236328 88.89399719238281 177.9999389648438 88.88235473632812 177.9999237060547 C 88.86944580078125 177.9999084472656 88.85636901855469 177.9998779296875 88.84343719482422 177.9998626708984 C 88.82881164550781 177.9998321533203 88.8179931640625 177.9998168945312 88.8033447265625 177.9997863769531 C 88.79168701171875 177.999755859375 88.77059936523438 177.9997100830078 88.75896453857422 177.9996795654297 C 88.74213409423828 177.9996337890625 88.7269287109375 177.9995880126953 88.71010589599609 177.9995422363281 C 88.69670867919922 177.9994964599609 88.68588256835938 177.9994506835938 88.67252349853516 177.9994049072266 C 88.65788269042969 177.9993591308594 88.64765930175781 177.9993133544922 88.63301849365234 177.9992523193359 C 88.6201171875 177.9992065429688 88.60610961914062 177.9991455078125 88.59323120117188 177.9990844726562 C 88.57859802246094 177.9990234375 88.56771850585938 177.9989776611328 88.55308532714844 177.9989013671875 C 88.54143524169922 177.9988403320312 88.52359008789062 177.9987487792969 88.51195526123047 177.9986877441406 C 88.47832489013672 177.9985046386719 88.4549560546875 177.9983673095703 88.42132568359375 177.9981536865234 C 88.40670776367188 177.9980621337891 88.39694213867188 177.9980010986328 88.38230895996094 177.9978942871094 C 88.37067413330078 177.9978179931641 88.35549163818359 177.9977111816406 88.34386444091797 177.9976348876953 C 88.33097076416016 177.9975433349609 88.31699371337891 177.9974365234375 88.30410003662109 177.9973297119141 C 88.28946685791016 177.9972229003906 88.27842712402344 177.9971313476562 88.26380920410156 177.9970092773438 C 88.25215148925781 177.9969177246094 88.23265838623047 177.9967651367188 88.22104644775391 177.9966583251953 C 88.20425415039062 177.9965209960938 88.18869781494141 177.9963836669922 88.17189788818359 177.9962310791016 C 88.15859985351562 177.9961090087891 88.1453857421875 177.9959869384766 88.13203430175781 177.995849609375 C 88.12042236328125 177.9957427978516 88.10514831542969 177.9955902099609 88.09352111816406 177.9954833984375 C 88.08364868164062 177.9953765869141 88.06430053710938 177.9951782226562 88.05440521240234 177.9950714111328 C 88.03978729248047 177.9949340820312 88.02970123291016 177.9948120117188 88.01508331298828 177.9946594238281 C 88.00348663330078 177.9945373535156 87.98499298095703 177.9943237304688 87.97336578369141 177.9942016601562 C 87.95704650878906 177.9940185546875 87.94150543212891 177.9938354492188 87.92517852783203 177.9936370849609 C 87.92517852783203 177.9936370849609 87.92202758789062 177.9936065673828 87.92202758789062 177.9936065673828 C 87.90524291992188 177.993408203125 87.88961029052734 177.9932098388672 87.87281036376953 177.9930114746094 C 87.86119079589844 177.9928588867188 87.84133911132812 177.9926147460938 87.82972717285156 177.9924621582031 C 87.81512451171875 177.9922790527344 87.80439758300781 177.9921264648438 87.789794921875 177.991943359375 C 87.77691650390625 177.9917602539062 87.76287078857422 177.9915771484375 87.75000762939453 177.9913940429688 C 87.73838806152344 177.9912414550781 87.72296142578125 177.9910278320312 87.71136474609375 177.9908599853516 C 87.69676971435547 177.9906463623047 87.68598937988281 177.9904937744141 87.67137908935547 177.9902801513672 C 87.65632629394531 177.9900665283203 87.63785552978516 177.9897918701172 87.62277221679688 177.9895629882812 C 87.60819244384766 177.9893341064453 87.59515380859375 177.9891357421875 87.58054351806641 177.9889068603516 C 87.56894683837891 177.9887237548828 87.55266571044922 177.9884643554688 87.54105377197266 177.98828125 C 87.52818298339844 177.9880676269531 87.51387023925781 177.9878387451172 87.50101470947266 177.9876251220703 C 87.48940277099609 177.9874420166016 87.47356414794922 177.9871673583984 87.46200561523438 177.9869842529297 C 87.44741821289062 177.9867248535156 87.43759155273438 177.9865570068359 87.42300415039062 177.9863128662109 C 87.41266632080078 177.9861297607422 87.39773559570312 177.9858703613281 87.38739776611328 177.9856872558594 C 87.38739776611328 177.9856872558594 87.38429260253906 177.9856262207031 87.38429260253906 177.9856262207031 C 87.36753082275391 177.9853363037109 87.35261535644531 177.9850616455078 87.33586883544922 177.9847564697266 C 87.32256317138672 177.9845123291016 87.30782318115234 177.9842376708984 87.29447174072266 177.9839782714844 C 87.27816772460938 177.9836730957031 87.26953887939453 177.9835205078125 87.25324249267578 177.9832000732422 C 87.23694610595703 177.9828796386719 87.22994232177734 177.9827423095703 87.21364593505859 177.982421875 C 87.20204925537109 177.9821929931641 87.18561553955078 177.9818725585938 87.17404174804688 177.9816436767578 C 87.16072082519531 177.9813690185547 87.14867401123047 177.9811248779297 87.13533782958984 177.9808502197266 C 87.12157440185547 177.9805755615234 87.10945129394531 177.9803161621094 87.09568786621094 177.9800262451172 C 87.09568786621094 177.9800262451172 87.09243774414062 177.9799652099609 87.09243774414062 177.9799652099609 C 87.07614898681641 177.9796142578125 87.06098175048828 177.9792938232422 87.04470062255859 177.9789428710938 C 87.03310394287109 177.9786987304688 87.01507568359375 177.9783020019531 87.00348663330078 177.9780426025391 C 86.98892211914062 177.9777221679688 86.9788818359375 177.9775085449219 86.96431732177734 177.9771728515625 C 86.95272827148438 177.9769134521484 86.93625640869141 177.9765472412109 86.92466735839844 177.9762725830078 C 86.91008758544922 177.9759368896484 86.90058898925781 177.9757232666016 86.88602447509766 177.9753875732422 C 86.87272644042969 177.9750823974609 86.86039733886719 177.9747924804688 86.84709167480469 177.9744720458984 C 86.83034515380859 177.9740753173828 86.81525421142578 177.9737091064453 86.79851531982422 177.9732971191406 C 86.78693389892578 177.9730224609375 86.76725769042969 177.9725341796875 86.75569152832031 177.9722595214844 C 86.74411010742188 177.9719696044922 86.72808837890625 177.9715728759766 86.71649932861328 177.9712677001953 C 86.70195007324219 177.9709014892578 86.69026947021484 177.9706115722656 86.67571258544922 177.9702453613281 C 86.66413879394531 177.9699401855469 86.64868927001953 177.9695434570312 86.63710784912109 177.96923828125 C 86.62554931640625 177.9689331054688 86.60987091064453 177.9685211181641 86.5982666015625 177.9682159423828 C 86.56652069091797 177.9673767089844 86.53814697265625 177.9666137695312 86.50640106201172 177.9657440185547 C 86.49482727050781 177.9654235839844 86.47824859619141 177.9649658203125 86.46669769287109 177.9646301269531 C 86.4521484375 177.9642333984375 86.44190216064453 177.9639434814453 86.42736053466797 177.9635314941406 C 86.41453552246094 177.9631652832031 86.40058898925781 177.9627685546875 86.38776397705078 177.96240234375 C 86.37493896484375 177.9620208740234 86.36099243164062 177.9616241455078 86.34816741943359 177.9612426757812 C 86.33362579345703 177.9608154296875 86.3245849609375 177.9605560302734 86.31004333496094 177.9601287841797 C 86.29331970214844 177.9596252441406 86.2774658203125 177.9591522216797 86.26072692871094 177.9586486816406 C 86.24917602539062 177.9582977294922 86.22972106933594 177.9577026367188 86.21814727783203 177.9573516845703 C 86.20360565185547 177.9569091796875 86.19243621826172 177.9565582275391 86.17789459228516 177.9561004638672 C 86.16506195068359 177.9557037353516 86.15289306640625 177.955322265625 86.14007568359375 177.9549255371094 C 86.12851715087891 177.9545593261719 86.11212921142578 177.9540252685547 86.10057830810547 177.9536590576172 C 86.08603668212891 177.9532012939453 86.07599639892578 177.952880859375 86.06147766113281 177.9524078369141 C 86.04695129394531 177.9519348144531 86.02827453613281 177.9513244628906 86.01374816894531 177.9508361816406 C 85.99922180175781 177.9503631591797 85.98650360107422 177.9499359130859 85.97196960449219 177.9494476318359 C 85.96041870117188 177.9490661621094 85.94246673583984 177.9484558105469 85.93089294433594 177.9480743408203 C 85.91637420654297 177.9475860595703 85.90608215332031 177.9472351074219 85.89154815673828 177.9467315673828 C 85.87873840332031 177.9462890625 85.86507415771484 177.9458160400391 85.85227966308594 177.9453735351562 C 85.83774566650391 177.9448699951172 85.82805633544922 177.9445343017578 85.81353759765625 177.9440155029297 C 85.80198669433594 177.9436187744141 85.78638458251953 177.9430541992188 85.77483367919922 177.9426422119141 C 85.75517272949219 177.9419555664062 85.74408721923828 177.9415435791016 85.72438812255859 177.9408416748047 C 85.70985412597656 177.9403076171875 85.69649505615234 177.9398193359375 85.68199920654297 177.9393005371094 C 85.66747283935547 177.9387664794922 85.65809631347656 177.9384155273438 85.64358520507812 177.9378814697266 C 85.63076782226562 177.9374084472656 85.61683654785156 177.9368896484375 85.60404968261719 177.9364013671875 C 85.59249877929688 177.9359741210938 85.57743835449219 177.9354095458984 85.56593322753906 177.9349670410156 C 85.55142211914062 177.9344177246094 85.54111480712891 177.9340209960938 85.52659606933594 177.9334716796875 C 85.51460266113281 177.9329986572266 85.50023651123047 177.9324493408203 85.48824310302734 177.9319915771484 C 85.48824310302734 177.9319915771484 85.48756408691406 177.9319610595703 85.48756408691406 177.9319610595703 C 85.46963500976562 177.9312591552734 85.45294952392578 177.9306030273438 85.43501281738281 177.9299011230469 C 85.42346954345703 177.929443359375 85.40666198730469 177.9287872314453 85.39517211914062 177.9283294677734 C 85.38237762451172 177.9278106689453 85.36831665039062 177.92724609375 85.35552215576172 177.9267425537109 C 85.34272003173828 177.9262237548828 85.33042144775391 177.9257202148438 85.31763458251953 177.9252014160156 C 85.30611419677734 177.9247283935547 85.29059600830078 177.9241027832031 85.27902221679688 177.9236297607422 C 85.26578521728516 177.9230804443359 85.25400543212891 177.9225921630859 85.24073028564453 177.9220428466797 C 85.22406768798828 177.9213562011719 85.20752716064453 177.920654296875 85.19086456298828 177.9199523925781 C 85.17636108398438 177.9193420410156 85.16356658935547 177.9188079833984 85.14907073974609 177.9181823730469 C 85.13456726074219 177.9175720214844 85.12324523925781 177.9170837402344 85.10875701904297 177.9164581298828 C 85.09597778320312 177.9159088134766 85.08268737792969 177.9153289794922 85.06990814208984 177.9147796630859 C 85.05839538574219 177.9142761230469 85.04215240478516 177.91357421875 85.03063201904297 177.9130706787109 C 85.01612854003906 177.9124298095703 85.00737762451172 177.9120483398438 84.99290466308594 177.9114074707031 C 84.98092651367188 177.9108734130859 84.96910858154297 177.9103393554688 84.95713043212891 177.9098052978516 C 84.95713043212891 177.9098052978516 84.95380401611328 177.90966796875 84.95380401611328 177.90966796875 C 84.93418121337891 177.9087829589844 84.92206573486328 177.9082336425781 84.90245056152344 177.9073486328125 C 84.89095306396484 177.9068298339844 84.87284851074219 177.906005859375 84.86129760742188 177.9054718017578 C 84.84681701660156 177.9048156738281 84.83673095703125 177.9043426513672 84.822265625 177.9036712646484 C 84.80947875976562 177.9030914306641 84.79558563232422 177.9024353027344 84.78281402587891 177.9018402099609 C 84.76833343505859 177.9011688232422 84.75896453857422 177.9007263183594 84.7445068359375 177.9000549316406 C 84.73002624511719 177.8993682861328 84.72048187255859 177.89892578125 84.70600891113281 177.8982391357422 C 84.68936920166016 177.8974456787109 84.67364501953125 177.8966827392578 84.65699005126953 177.8958892822266 C 84.64250946044922 177.8951873779297 84.62885284423828 177.89453125 84.6143798828125 177.8938293457031 C 84.59990692138672 177.8931274414062 84.58995819091797 177.8926391601562 84.57548522949219 177.8919372558594 C 84.56272125244141 177.8913116455078 84.54914855957031 177.8906402587891 84.53638458251953 177.8900146484375 C 84.52489471435547 177.8894500732422 84.50996398925781 177.8887023925781 84.49845886230469 177.8881378173828 C 84.48397827148438 177.8874053955078 84.47368621826172 177.8869018554688 84.45921325683594 177.8861694335938 C 84.43359375 177.8848876953125 84.40829467773438 177.8836059570312 84.38268280029297 177.8822937011719 C 84.36819458007812 177.8815460205078 84.35761260986328 177.8810119628906 84.34315490722656 177.8802642822266 C 84.33163452148438 177.8796691894531 84.31649780273438 177.8788909912109 84.30500793457031 177.8782806396484 C 84.29224395751953 177.8776245117188 84.278076171875 177.8768768310547 84.26532745361328 177.876220703125 C 84.25086212158203 177.8754577636719 84.24215698242188 177.875 84.22771453857422 177.8742370605469 C 84.21324920654297 177.8734741210938 84.20201110839844 177.8728790283203 84.18753814697266 177.8721008300781 C 84.16796112060547 177.8710632324219 84.15442657470703 177.8703308105469 84.13485717773438 177.8692779541016 C 84.12336730957031 177.8686676025391 84.10842895507812 177.8678588867188 84.09693908691406 177.8672332763672 C 84.08420562744141 177.8665466308594 84.07171630859375 177.8658599853516 84.05895233154297 177.8651580810547 C 84.04621124267578 177.8644561767578 84.03215789794922 177.8636932373047 84.01940155029297 177.8629913330078 C 84.00665283203125 177.8622894287109 83.99344635009766 177.8615570068359 83.98069763183594 177.86083984375 C 83.96626281738281 177.8600463867188 83.95607757568359 177.8594665527344 83.94163513183594 177.8586578369141 C 83.92719268798828 177.8578491210938 83.91455078125 177.8571472167969 83.90010833740234 177.8563232421875 C 83.88523101806641 177.8554840087891 83.86426544189453 177.8542938232422 83.84937286376953 177.8534545898438 C 83.83493041992188 177.8526306152344 83.8265380859375 177.8521423339844 83.81208801269531 177.851318359375 C 83.79811859130859 177.8505096435547 83.78776550292969 177.8499145507812 83.77377319335938 177.8491058349609 C 83.76104736328125 177.8483581542969 83.74874877929688 177.8476409912109 83.73600769042969 177.8469085693359 C 83.72499084472656 177.8462677001953 83.70829010009766 177.8452911376953 83.69725799560547 177.8446350097656 C 83.68156433105469 177.8437194824219 83.67298889160156 177.8432006835938 83.65729522705078 177.84228515625 C 83.63944244384766 177.8412170410156 83.62091064453125 177.8401184082031 83.60308074951172 177.8390502929688 C 83.59157562255859 177.8383636474609 83.57614898681641 177.8374481201172 83.564697265625 177.8367462158203 C 83.55027008056641 177.8358764648438 83.54064178466797 177.8352966308594 83.52622222900391 177.8344268798828 C 83.51348876953125 177.8336486816406 83.50099945068359 177.8328857421875 83.48828125 177.8321075439453 C 83.47557067871094 177.8313293457031 83.46196746826172 177.8305053710938 83.44924163818359 177.8297119140625 C 83.434814453125 177.8288269042969 83.424560546875 177.8282012939453 83.41013336181641 177.8273010253906 C 83.39572143554688 177.826416015625 83.37947845458984 177.8253936767578 83.36505889892578 177.8244934082031 C 83.34849548339844 177.8234558105469 83.33457183837891 177.8225860595703 83.3179931640625 177.8215484619141 C 83.30357360839844 177.8206329345703 83.29389953613281 177.8200225830078 83.27947998046875 177.8191070556641 C 83.26971435546875 177.8184967041016 83.25177001953125 177.8173522949219 83.24201202392578 177.8167266845703 C 83.22930145263672 177.81591796875 83.21633148193359 177.8150787353516 83.20360565185547 177.8142700195312 C 83.19090270996094 177.8134460449219 83.17778015136719 177.8126068115234 83.16506195068359 177.8117828369141 C 83.14939880371094 177.8107604980469 83.1412353515625 177.8102416992188 83.12557220458984 177.8092193603516 C 83.11456298828125 177.8085021972656 83.10010528564453 177.8075561523438 83.08909606933594 177.8068237304688 C 83.07048797607422 177.8056030273438 83.05252838134766 177.8044281005859 83.03392791748047 177.8031921386719 C 83.02124786376953 177.8023529052734 83.00783538818359 177.8014678955078 82.9951171875 177.8006134033203 C 82.98242950439453 177.7997741699219 82.97046661376953 177.7989807128906 82.95774841308594 177.7981262207031 C 82.94504547119141 177.7972717285156 82.93222808837891 177.7964019775391 82.91952514648438 177.7955474853516 C 82.90682220458984 177.7946929931641 82.89272308349609 177.7937469482422 82.88003540039062 177.7928771972656 C 82.86563873291016 177.7919006347656 82.85170745849609 177.7909545898438 82.83731079101562 177.7899627685547 C 82.81780242919922 177.7886352539062 82.80661010742188 177.7878723144531 82.78712463378906 177.7865142822266 C 82.77272796630859 177.7855224609375 82.76367950439453 177.7848968505859 82.74928283691406 177.7839050292969 C 82.73487854003906 177.7828979492188 82.72486877441406 177.7822113037109 82.71048736572266 177.7812042236328 C 82.69779205322266 177.7803192138672 82.68485260009766 177.7794036865234 82.67215728759766 177.7785186767578 C 82.65947723388672 177.7776336669922 82.64685821533203 177.7767333984375 82.63417816162109 177.7758483886719 C 82.61854553222656 177.7747344970703 82.61225128173828 177.7742919921875 82.59659576416016 177.7731781005859 C 82.58390045166016 177.7722778320312 82.56879425048828 177.7711944580078 82.55611419677734 177.7702941894531 C 82.53753662109375 177.7689666748047 82.52227783203125 177.7678680419922 82.50369262695312 177.7665252685547 C 82.49101257324219 177.7656097412109 82.47822570800781 177.7646789550781 82.46553802490234 177.7637634277344 C 82.45284271240234 177.7628479003906 82.43997955322266 177.7619018554688 82.42730712890625 177.760986328125 C 82.41461944580078 177.7600555419922 82.40241241455078 177.7591552734375 82.38973236083984 177.7582244873047 C 82.37874603271484 177.7574310302734 82.36199951171875 177.7561950683594 82.35101318359375 177.7553863525391 C 82.33538818359375 177.7542266845703 82.32515716552734 177.7534637451172 82.30952453613281 177.7523040771484 C 82.30363464355469 177.7518615722656 82.30013275146484 177.7516021728516 82.29425048828125 177.7511749267578 C 82.28067016601562 177.7501525878906 82.27106475830078 177.7494354248047 82.25749206542969 177.7484283447266 C 82.24310302734375 177.7473449707031 82.23295593261719 177.74658203125 82.21858978271484 177.7454986572266 C 82.20423889160156 177.7444152832031 82.1947021484375 177.7436981201172 82.18032836914062 177.7426147460938 C 82.16767120361328 177.7416534423828 82.1536865234375 177.7405853271484 82.14099884033203 177.7396240234375 C 82.12663269042969 177.738525390625 82.11801147460938 177.7378692626953 82.10364532470703 177.7367706298828 C 82.09391784667969 177.7360229492188 82.07504272460938 177.7345733642578 82.06531524658203 177.7338256835938 C 82.05097198486328 177.7327117919922 82.03339385986328 177.7313537597656 82.01902770996094 177.7302398681641 C 82.00467681884766 177.7291259765625 81.98824310302734 177.7278442382812 81.97386932373047 177.7267303466797 C 81.96120452880859 177.7257385253906 81.94875335693359 177.7247619628906 81.93608856201172 177.7237701416016 C 81.92218780517578 177.7226715087891 81.91136169433594 177.7218170166016 81.89744567871094 177.7207183837891 C 81.88478851318359 177.7197265625 81.87086486816406 177.7186279296875 81.85820770263672 177.7176208496094 C 81.84555816650391 177.7166137695312 81.83309936523438 177.7156219482422 81.8204345703125 177.7146148681641 C 81.80776977539062 177.7135925292969 81.79673767089844 177.7127227783203 81.78408050537109 177.7117004394531 C 81.76553344726562 177.7102203369141 81.74679565429688 177.7087097167969 81.72827911376953 177.7072143554688 C 81.71562957763672 177.7061920166016 81.70310974121094 177.7051696777344 81.69046020507812 177.7041473388672 C 81.67781066894531 177.7031097412109 81.66458892822266 177.7020416259766 81.65193939208984 177.7010040283203 C 81.63928985595703 177.6999664306641 81.62665557861328 177.6989288330078 81.61400604248047 177.6978912353516 C 81.60135650634766 177.6968536376953 81.58750915527344 177.6957092285156 81.57485961914062 177.6946716308594 C 81.56221008300781 177.6936187744141 81.55074310302734 177.6926727294922 81.53809356689453 177.6916198730469 C 81.52545166015625 177.6905670166016 81.51248931884766 177.6894989013672 81.49984741210938 177.6884460449219 C 81.48131561279297 177.6868896484375 81.46377563476562 177.6854248046875 81.44528198242188 177.6838684082031 C 81.43264007568359 177.6828155517578 81.42030334472656 177.6817626953125 81.40766143798828 177.6806945800781 C 81.39376831054688 177.6795349121094 81.383544921875 177.6786651611328 81.36968231201172 177.677490234375 C 81.35702514648438 177.6764068603516 81.34368896484375 177.6752777099609 81.3310546875 177.6741943359375 C 81.31842041015625 177.6731109619141 81.30526733398438 177.6719970703125 81.29263305664062 177.6709136962891 C 81.28000640869141 177.6698303222656 81.26862335205078 177.6688537597656 81.2559814453125 177.6677551269531 C 81.24842071533203 177.6670989990234 81.23419189453125 177.6658782958984 81.22662353515625 177.6652221679688 C 81.21195220947266 177.6639556884766 81.19460296630859 177.6624450683594 81.17993927001953 177.6611633300781 C 81.16606140136719 177.6599578857422 81.15599822998047 177.6590881347656 81.14212036132812 177.6578674316406 C 81.13117980957031 177.6569061279297 81.11497497558594 177.6554870605469 81.10403442382812 177.6545257568359 C 81.09310150146484 177.653564453125 81.07781219482422 177.6522216796875 81.06687164306641 177.6512603759766 C 81.05422973632812 177.650146484375 81.04232788085938 177.6490783691406 81.02970123291016 177.6479644775391 C 81.01708221435547 177.6468505859375 81.00376892089844 177.6456604003906 80.99114227294922 177.64453125 C 80.98438262939453 177.6439361572266 80.97777557373047 177.6433410644531 80.97101593017578 177.6427307128906 C 80.95928955078125 177.6416931152344 80.95136260986328 177.6409759521484 80.93963623046875 177.6399230957031 C 80.92701721191406 177.6387939453125 80.91356658935547 177.6375885009766 80.90095520019531 177.6364440917969 C 80.88834381103516 177.6352996826172 80.87358856201172 177.6339721679688 80.8609619140625 177.6328277587891 C 80.84834289550781 177.6316833496094 80.83504486083984 177.6304779052734 80.82240295410156 177.6293182373047 C 80.80978393554688 177.628173828125 80.79684448242188 177.6269989013672 80.78424072265625 177.6258392333984 C 80.77455139160156 177.6249542236328 80.75717163085938 177.6233520507812 80.74747467041016 177.6224670410156 C 80.73316192626953 177.6211547851562 80.72300720214844 177.6202087402344 80.70870971679688 177.618896484375 C 80.69519805908203 177.6176452636719 80.68567657470703 177.6167602539062 80.67216491699219 177.6155090332031 C 80.65956115722656 177.6143341064453 80.64739990234375 177.6132049560547 80.63478851318359 177.6120300292969 C 80.62217712402344 177.6108551025391 80.60845184326172 177.6095733642578 80.59584045410156 177.6083984375 C 80.58322143554688 177.6072082519531 80.57085418701172 177.6060485839844 80.55824279785156 177.6048583984375 C 80.54563140869141 177.6036834716797 80.53217315673828 177.6024017333984 80.51957702636719 177.6012115478516 C 80.50696563720703 177.6000213623047 80.49407958984375 177.5988006591797 80.48147583007812 177.5976104736328 C 80.46718597412109 177.5962524414062 80.45352935791016 177.5949554443359 80.43924713134766 177.5935821533203 C 80.42326354980469 177.5920562744141 80.40592956542969 177.5904083251953 80.38997650146484 177.5888671875 C 80.37737274169922 177.5876617431641 80.36483764648438 177.5864562988281 80.35221862792969 177.5852355957031 C 80.33963012695312 177.5840301513672 80.32651519775391 177.582763671875 80.31389617919922 177.58154296875 C 80.30130004882812 177.580322265625 80.28826904296875 177.5790557861328 80.27566528320312 177.5778198242188 C 80.26140594482422 177.5764312744141 80.25143432617188 177.5754699707031 80.23714447021484 177.5740661621094 C 80.22286224365234 177.5726776123047 80.21028137207031 177.5714416503906 80.19599914550781 177.5700378417969 C 80.18003845214844 177.5684661865234 80.17068481445312 177.5675506591797 80.15471649169922 177.5659790039062 C 80.13920593261719 177.5644378662109 80.12299346923828 177.5628356933594 80.10748291015625 177.5613098144531 C 80.09320831298828 177.5598907470703 80.08400726318359 177.5589752197266 80.06974792480469 177.5575561523438 C 80.05714416503906 177.5562896728516 80.0439453125 177.5549774169922 80.03135681152344 177.5537109375 C 80.01877593994141 177.5524597167969 80.00672912597656 177.5512542724609 79.99413299560547 177.5499877929688 C 79.9798583984375 177.5485534667969 79.96829223632812 177.5473785400391 79.95403289794922 177.5459442138672 C 79.93976593017578 177.5445098876953 79.9244384765625 177.5429534912109 79.91017150878906 177.54150390625 C 79.90724945068359 177.5412139892578 79.90367889404297 177.5408477783203 79.9007568359375 177.5405578613281 C 79.88896942138672 177.5393524169922 79.87584686279297 177.5380249023438 79.86405944824219 177.5368194580078 C 79.85147857666016 177.5355377197266 79.83917236328125 177.5342712402344 79.82659912109375 177.5329895019531 C 79.81277465820312 177.5315704345703 79.80269622802734 177.5305328369141 79.78889465332031 177.5291137695312 C 79.77632141113281 177.52783203125 79.76322174072266 177.5264739990234 79.75064849853516 177.5251770019531 C 79.73975372314453 177.5240478515625 79.72383880615234 177.5223999023438 79.71294403076172 177.5212707519531 C 79.69744873046875 177.5196685791016 79.69054412841797 177.5189514160156 79.67505645751953 177.517333984375 C 79.66921997070312 177.5167388916016 79.66143798828125 177.5159301757812 79.65559387207031 177.5153198242188 C 79.64550018310547 177.5142669677734 79.63594055175781 177.5132598876953 79.62584686279297 177.51220703125 C 79.61034393310547 177.5105895996094 79.5987548828125 177.5093688964844 79.58326721191406 177.5077362060547 C 79.56778717041016 177.506103515625 79.56059265136719 177.5053558349609 79.54511260986328 177.5037231445312 C 79.53423309326172 177.5025634765625 79.51894378662109 177.5009460449219 79.50804901123047 177.4998016357422 C 79.49716186523438 177.4986419677734 79.48097991943359 177.4969177246094 79.47011566162109 177.4957580566406 C 79.45632171630859 177.4942932128906 79.44790649414062 177.4933929443359 79.43412017822266 177.4919281005859 C 79.42032623291016 177.4904479980469 79.41034698486328 177.4893798828125 79.39656066894531 177.4878997802734 C 79.3848876953125 177.4866485595703 79.36753845214844 177.4847869873047 79.35587310791016 177.4835357666016 C 79.34205627441406 177.4820404052734 79.33152008056641 177.4808959960938 79.31772613525391 177.4794158935547 C 79.303955078125 177.4779205322266 79.29396057128906 177.4768371582031 79.28016662597656 177.475341796875 C 79.26929473876953 177.4741516113281 79.25325775146484 177.472412109375 79.24238586425781 177.4712219238281 C 79.23151397705078 177.4700469970703 79.21633911132812 177.4683837890625 79.20546722412109 177.4671936035156 C 79.19168090820312 177.4656829833984 79.18067932128906 177.4644775390625 79.16689300537109 177.4629669189453 C 79.15476226806641 177.4616241455078 79.14220428466797 177.4602508544922 79.13011169433594 177.4589080810547 C 79.12843322753906 177.4587249755859 79.12833404541016 177.4587097167969 79.12665557861328 177.4585266113281 C 79.10625457763672 177.4562835693359 79.09264373779297 177.4547729492188 79.07224273681641 177.4525146484375 C 79.05846405029297 177.4509735107422 79.04974365234375 177.4500122070312 79.03598022460938 177.4484710693359 C 79.02387237548828 177.4471282958984 79.01100921630859 177.4456939697266 78.99890899658203 177.4443359375 C 78.98804473876953 177.4431304931641 78.97201538085938 177.4413299560547 78.96115112304688 177.4401092529297 C 78.94738006591797 177.4385681152344 78.93820953369141 177.4375305175781 78.92443084716797 177.4359741210938 C 78.91065216064453 177.4344329833984 78.90049743652344 177.4332885742188 78.88673400878906 177.4317169189453 C 78.88337707519531 177.4313507080078 78.87938690185547 177.4308929443359 78.87602996826172 177.4305114746094 C 78.84690856933594 177.4272155761719 78.82247161865234 177.4244384765625 78.79335784912109 177.4211120605469 C 78.77959442138672 177.4195404052734 78.76919555664062 177.4183502197266 78.75543212890625 177.4167785644531 C 78.74456787109375 177.41552734375 78.729248046875 177.4137725830078 78.71839904785156 177.4125213623047 C 78.70753479003906 177.4112701416016 78.69106292724609 177.4093780517578 78.68022918701172 177.4081268310547 C 78.67519378662109 177.4075469970703 78.67249298095703 177.4072265625 78.66745758056641 177.4066467285156 C 78.65872955322266 177.4056396484375 78.65242767333984 177.4049072265625 78.64369964599609 177.4039001464844 C 78.638671875 177.4033203125 78.63569641113281 177.4029693603516 78.63066864013672 177.4023895263672 C 78.58993530273438 177.3976593017578 78.55009460449219 177.3930053710938 78.50937652587891 177.3882293701172 C 78.50602722167969 177.3878326416016 78.50162506103516 177.3873138427734 78.49826812744141 177.3869171142578 C 78.48954772949219 177.3858947753906 78.48177337646484 177.3849792480469 78.47305297851562 177.3839569091797 C 78.468017578125 177.3833618164062 78.4669189453125 177.3832244873047 78.46189117431641 177.3826446533203 C 78.45317077636719 177.3816070556641 78.44573211669922 177.3807373046875 78.43700408935547 177.3796997070312 C 78.43365478515625 177.3793029785156 78.42737579345703 177.3785552978516 78.42402648925781 177.3781585693359 C 78.41530609130859 177.3771362304688 78.40869903564453 177.3763427734375 78.39997863769531 177.3753051757812 C 78.39662170410156 177.3749084472656 78.39164733886719 177.3743286132812 78.38829803466797 177.3739318847656 C 78.37957763671875 177.3728942871094 78.37162017822266 177.3719482421875 78.36289978027344 177.3709106445312 C 78.35954284667969 177.3704986572266 78.35646057128906 177.3701324462891 78.35310363769531 177.3697357177734 C 78.32403564453125 177.3662719726562 78.29452514648438 177.3627319335938 78.26546478271484 177.3592376708984 C 78.26211547851562 177.3588409423828 78.25851440429688 177.3584136962891 78.25516510009766 177.3580017089844 C 78.24645233154297 177.3569641113281 78.24036407470703 177.3562316894531 78.23164367675781 177.3551788330078 C 78.22662353515625 177.3545684814453 78.22282409667969 177.3541107177734 78.21780395507812 177.3535003662109 C 78.20908355712891 177.3524475097656 78.20259094238281 177.3516693115234 78.19387817382812 177.3506164550781 C 78.18472290039062 177.3495025634766 78.16622924804688 177.3472595214844 78.15706634521484 177.3461456298828 C 78.15204620361328 177.3455352783203 78.14986419677734 177.3452758789062 78.14484405517578 177.3446655273438 C 78.13613128662109 177.3435974121094 78.12823486328125 177.3426361083984 78.11952209472656 177.3415832519531 C 78.11617279052734 177.3411712646484 78.11267852783203 177.3407440185547 78.10932922363281 177.34033203125 C 78.10061645507812 177.3392791748047 78.09211730957031 177.3382415771484 78.08340454101562 177.3371734619141 C 78.08005523681641 177.3367614746094 78.07746124267578 177.3364410400391 78.07411193847656 177.3360290527344 C 78.05669403076172 177.3338928222656 78.03610229492188 177.3313751220703 78.01868438720703 177.3292236328125 C 78.01701354980469 177.3290252685547 78.01401519775391 177.3286590576172 78.01234436035156 177.3284454345703 C 78.00363159179688 177.3273773193359 77.99657440185547 177.3265075683594 77.98786926269531 177.3254241943359 C 77.98451995849609 177.3250122070312 77.97857666015625 177.3242797851562 77.97522735595703 177.3238677978516 C 77.96652221679688 177.3227996826172 77.96105194091797 177.3221130371094 77.95233917236328 177.321044921875 C 77.94151306152344 177.3197021484375 77.92516326904297 177.3176727294922 77.91433715820312 177.3163299560547 C 77.91099548339844 177.31591796875 77.90545654296875 177.3152160644531 77.90210723876953 177.3148040771484 C 77.89340209960938 177.313720703125 77.88570404052734 177.3127593994141 77.87699890136719 177.3116760253906 C 77.87364959716797 177.3112640380859 77.86853790283203 177.3106231689453 77.86518859863281 177.3102111816406 C 77.85648345947266 177.3091125488281 77.84937286376953 177.3082275390625 77.84066772460938 177.3071441650391 C 77.83564758300781 177.3065185546875 77.83303070068359 177.3061828613281 77.82801055908203 177.3055572509766 C 77.79899597167969 177.3019256591797 77.77313995361328 177.2986755371094 77.74413299560547 177.2950134277344 C 77.74078369140625 177.2945861816406 77.73589324951172 177.2939758300781 77.7325439453125 177.2935485839844 C 77.72384643554688 177.2924499511719 77.71898651123047 177.2918395996094 77.71028900146484 177.2907409667969 C 77.69947052001953 177.2893676757812 77.68537139892578 177.2875823974609 77.67455291748047 177.2862091064453 C 77.66207122802734 177.2846221923828 77.64877319335938 177.2829284667969 77.63627624511719 177.2813415527344 C 77.63126373291016 177.2807006835938 77.62510681152344 177.2799072265625 77.62009429931641 177.2792663574219 C 77.61139678955078 177.2781677246094 77.60782623291016 177.2777099609375 77.59912872314453 177.2765960693359 C 77.5941162109375 177.2759552001953 77.58901977539062 177.2752990722656 77.58400726318359 177.274658203125 C 77.57530975341797 177.2735443115234 77.56934356689453 177.2727813720703 77.56064605712891 177.2716674804688 C 77.55897521972656 177.2714538574219 77.55617523193359 177.2710876464844 77.55450439453125 177.2708740234375 C 77.53421020507812 177.2682647705078 77.51483917236328 177.2657775878906 77.49455261230469 177.2631530761719 C 77.49288177490234 177.262939453125 77.49223327636719 177.2628631591797 77.49056243896484 177.2626495361328 C 77.48186492919922 177.2615203857422 77.47525024414062 177.2606658935547 77.466552734375 177.2595367431641 C 77.46154022216797 177.2588958740234 77.45787048339844 177.2584228515625 77.45285797119141 177.2577667236328 C 77.44416809082031 177.2566375732422 77.43934631347656 177.2560119628906 77.43065643310547 177.2548828125 C 77.41984558105469 177.2534790039062 77.40475463867188 177.2515258789062 77.39394378662109 177.2501068115234 C 77.3814697265625 177.2484893798828 77.36843872070312 177.2467956542969 77.35597991943359 177.2451629638672 C 77.35263824462891 177.2447204589844 77.34670257568359 177.2439422607422 77.34336090087891 177.2435150146484 C 77.33467102050781 177.2423706054688 77.32708740234375 177.2413787841797 77.31839752197266 177.240234375 C 77.31505584716797 177.2398071289062 77.31266784667969 177.2394866943359 77.30933380126953 177.2390594482422 C 77.28036499023438 177.2352447509766 77.24881744384766 177.2310943603516 77.21985626220703 177.2272644042969 C 77.21652221679688 177.2268218994141 77.21470642089844 177.2265930175781 77.21137237548828 177.2261505126953 C 77.20268249511719 177.2249908447266 77.19538116455078 177.2240295410156 77.18669891357422 177.2228698730469 C 77.18335723876953 177.2224273681641 77.17786407470703 177.2217102050781 77.17452239990234 177.2212677001953 C 77.16584014892578 177.2201080322266 77.15882110595703 177.2191772460938 77.15013885498047 177.218017578125 C 77.13934326171875 177.2165832519531 77.12512969970703 177.2146911621094 77.11434936523438 177.2132568359375 C 77.10933685302734 177.2125854492188 77.10498046875 177.2120056152344 77.0999755859375 177.2113342285156 C 77.09129333496094 177.2101745605469 77.08545684814453 177.2093963623047 77.07677459716797 177.2082214355469 C 77.07344055175781 177.2077789306641 77.06758117675781 177.2070007324219 77.06423950195312 177.20654296875 C 77.05555725097656 177.2053833007812 77.04856872558594 177.2044525146484 77.03988647460938 177.2032775878906 C 77.03655242919922 177.2028350830078 77.03523254394531 177.2026519775391 77.03189849853516 177.2022094726562 C 77.01164245605469 177.1994781494141 76.99390411376953 177.1970977783203 76.97365570068359 177.1943664550781 C 76.97198486328125 177.1941375732422 76.97085571289062 177.1939849853516 76.96919250488281 177.1937561035156 C 76.96051025390625 177.1925811767578 76.95223999023438 177.1914672851562 76.94356536865234 177.1902923583984 C 76.94023132324219 177.1898345947266 76.93619537353516 177.1892852783203 76.932861328125 177.1888427734375 C 76.92417907714844 177.1876678466797 76.91690826416016 177.1866760253906 76.90823364257812 177.1855010986328 C 76.89743041992188 177.1840362548828 76.88326263427734 177.1820983886719 76.87248229980469 177.1806335449219 C 76.86338043212891 177.1793975830078 76.84478759765625 177.1768493652344 76.83567047119141 177.1756134033203 C 76.83066558837891 177.1749267578125 76.82589721679688 177.1742706298828 76.82089233398438 177.173583984375 C 76.81221771240234 177.1724090576172 76.80681610107422 177.1716613769531 76.79814910888672 177.1704711914062 C 76.79314422607422 177.1697845458984 76.7919921875 177.1696319580078 76.7869873046875 177.1689453125 C 76.75807952880859 177.1649780273438 76.72862243652344 177.1609191894531 76.69972229003906 177.1569213867188 C 76.69638824462891 177.1564636230469 76.69422912597656 177.1561584472656 76.69090270996094 177.1557006835938 C 76.68222808837891 177.1545104980469 76.67459869384766 177.1534423828125 76.66593170166016 177.1522521972656 C 76.66259765625 177.1517791748047 76.65734100341797 177.1510620117188 76.65400695800781 177.1505889892578 C 76.64533996582031 177.1493835449219 76.63790893554688 177.1483612060547 76.62924194335938 177.1471557617188 C 76.62014770507812 177.1458892822266 76.60179901123047 177.1433258056641 76.59266662597656 177.1420593261719 C 76.58767700195312 177.141357421875 76.58544921875 177.1410522460938 76.58045196533203 177.1403503417969 C 76.57178497314453 177.1391448974609 76.56596374511719 177.1383361816406 76.55729675292969 177.1371154785156 C 76.55229949951172 177.1364135742188 76.54759216308594 177.1357574462891 76.5426025390625 177.1350555419922 C 76.533935546875 177.1338500976562 76.52809906005859 177.1330261230469 76.51943206787109 177.1318054199219 C 76.51610565185547 177.13134765625 76.51435089111328 177.131103515625 76.51102447509766 177.1306304931641 C 76.48213958740234 177.1265716552734 76.45201110839844 177.1223297119141 76.42314147949219 177.1182403564453 C 76.41814422607422 177.1175384521484 76.41748046875 177.1174468994141 76.41249084472656 177.1167449951172 C 76.40383148193359 177.1155090332031 76.39666748046875 177.114501953125 76.38800811767578 177.1132659912109 C 76.38301086425781 177.1125640869141 76.38077545166016 177.1122436523438 76.37578582763672 177.1115417480469 C 76.36712646484375 177.1103057861328 76.36071014404297 177.1093902587891 76.35205078125 177.108154296875 C 76.34295654296875 177.1068572998047 76.32428741455078 177.1042022705078 76.31519317626953 177.1029052734375 C 76.31020355224609 177.1022033691406 76.30765533447266 177.1018371582031 76.30266571044922 177.1011199951172 C 76.29400634765625 177.0998840332031 76.28662109375 177.0988311767578 76.27796173095703 177.0975952148438 C 76.27629852294922 177.0973510742188 76.27001953125 177.0964508056641 76.26835632324219 177.0962066650391 C 76.23661041259766 177.0916595458984 76.20497894287109 177.0871124267578 76.17324829101562 177.0825347900391 C 76.17158508300781 177.0822906494141 76.1737060546875 177.0826110839844 76.17204284667969 177.0823669433594 C 76.16339111328125 177.0811157226562 76.15386199951172 177.0797424316406 76.14521026611328 177.0784912109375 C 76.14188385009766 177.0780029296875 76.13818359375 177.0774688720703 76.13485717773438 177.0769805908203 C 76.12620544433594 177.0757293701172 76.11837005615234 177.0746002197266 76.10971832275391 177.0733489990234 C 76.09896087646484 177.07177734375 76.084716796875 177.0697174072266 76.07395935058594 177.0681457519531 C 76.06897735595703 177.0674285888672 76.06634521484375 177.0670471191406 76.06136322021484 177.0663146972656 C 76.05271148681641 177.0650482177734 76.04515075683594 177.0639495849609 76.0364990234375 177.0626831054688 C 76.03317260742188 177.0622100830078 76.02947235107422 177.0616607666016 76.02615356445312 177.0611724853516 C 76.01750183105469 177.0599212646484 76.00873565673828 177.0586395263672 76.00008392333984 177.057373046875 C 75.99842071533203 177.05712890625 75.99549865722656 177.0567016601562 75.99384307861328 177.0564575195312 C 75.96501159667969 177.0522308349609 75.93105316162109 177.0472412109375 75.90223693847656 177.0429840087891 C 75.90057373046875 177.0427398681641 75.89565277099609 177.0420227050781 75.89399719238281 177.0417785644531 C 75.88534545898438 177.0404968261719 75.87747192382812 177.0393371582031 75.86882781982422 177.0380554199219 C 75.86550903320312 177.0375671386719 75.85993194580078 177.0367431640625 75.85660552978516 177.0362548828125 C 75.84796142578125 177.0349731445312 75.84100341796875 177.033935546875 75.83235931396484 177.0326538085938 C 75.82903289794922 177.0321655273438 75.82405090332031 177.0314178466797 75.82073211669922 177.0309295654297 C 75.81208801269531 177.0296478271484 75.80432891845703 177.0285034179688 75.79569244384766 177.0272064208984 C 75.79071044921875 177.0264739990234 75.78896331787109 177.0262145996094 75.78398132324219 177.0254669189453 C 75.77534484863281 177.0241851806641 75.76811218261719 177.0231018066406 75.75947570800781 177.0218200683594 C 75.75449371337891 177.0210723876953 75.7525634765625 177.0207824707031 75.74758148193359 177.0200500488281 C 75.73893737792969 177.0187530517578 75.73139953613281 177.0176239013672 75.72276306152344 177.0163421630859 C 75.72109985351562 177.0160827636719 75.72015380859375 177.0159454345703 75.71849060058594 177.0157012939453 C 75.68681335449219 177.0109558105469 75.65684509277344 177.0064544677734 75.62517547607422 177.0016784667969 C 75.62184906005859 177.0011749267578 75.61996459960938 177.0009002685547 75.61664581298828 177.0003967285156 C 75.60800933837891 176.9990997314453 75.60028076171875 176.9979248046875 75.59164428710938 176.9966278076172 C 75.58090972900391 176.9949951171875 75.56623840332031 176.9927825927734 75.55550384521484 176.9911499023438 C 75.55052947998047 176.9904022216797 75.54752349853516 176.9899444580078 75.54254913330078 176.9891815185547 C 75.53391265869141 176.9878845214844 75.52724456787109 176.9868621826172 75.51860809326172 176.9855499267578 C 75.51529693603516 176.9850463867188 75.51045989990234 176.9843139648438 75.50714111328125 176.9838104248047 C 75.49850463867188 176.9824981689453 75.49028015136719 176.9812469482422 75.48164367675781 176.9799346923828 C 75.47832489013672 176.9794311523438 75.47710418701172 176.9792327880859 75.47378540039062 176.9787292480469 C 75.44501495361328 176.9743499755859 75.41358184814453 176.9695281982422 75.38481140136719 176.9651184082031 C 75.38150024414062 176.9646148681641 75.37895202636719 176.9642181396484 75.37564086914062 176.9637145996094 C 75.36701202392578 176.9623870849609 75.35829925537109 176.9610443115234 75.34967041015625 176.959716796875 C 75.34635162353516 176.9592132568359 75.34273529052734 176.9586486816406 75.33941650390625 176.9581451416016 C 75.33078765869141 176.9568176269531 75.32273101806641 176.95556640625 75.31410217285156 176.9542388916016 C 75.31078338623047 176.9537200927734 75.30591583251953 176.9529724121094 75.30260467529297 176.9524536132812 C 75.29397583007812 176.9511260986328 75.28605651855469 176.9499053955078 75.27743530273438 176.9485626220703 C 75.27411651611328 176.9480590820312 75.27047729492188 176.9474945068359 75.26716613769531 176.9469757080078 C 75.25853729248047 176.9456481933594 75.24950408935547 176.9442443847656 75.24088287353516 176.9429016113281 C 75.23922729492188 176.9426422119141 75.234375 176.94189453125 75.23271942138672 176.9416351318359 C 75.18959808349609 176.9349365234375 75.14849090576172 176.9285278320312 75.10538482666016 176.9217681884766 C 75.10372924804688 176.9215087890625 75.10153961181641 176.9211730957031 75.09988403320312 176.9209136962891 C 75.09126281738281 176.9195556640625 75.08041381835938 176.9178466796875 75.07179260253906 176.91650390625 C 75.07013702392578 176.9162292480469 75.06475067138672 176.9153900146484 75.06309509277344 176.9151306152344 C 75.05448150634766 176.9137725830078 75.04529571533203 176.9123229980469 75.03667449951172 176.9109649658203 C 75.03336334228516 176.9104461669922 75.03041839599609 176.9099884033203 75.02710723876953 176.9094543457031 C 75.01848602294922 176.9080963134766 75.00823974609375 176.9064788818359 74.99962615966797 176.9051208496094 C 74.99631500244141 176.9046020507812 74.99623107910156 176.9045867919922 74.992919921875 176.9040679931641 C 74.98429870605469 176.9026947021484 74.97216033935547 176.9007873535156 74.96354675292969 176.8994140625 C 74.96189117431641 176.8991546630859 74.96320343017578 176.8993682861328 74.9615478515625 176.8990936279297 C 74.92708587646484 176.8936462402344 74.89472198486328 176.8884887695312 74.86026763916016 176.8829956054688 C 74.86026763916016 176.8829956054688 74.85979461669922 176.8829193115234 74.85979461669922 176.8829193115234 C 74.85118103027344 176.8815460205078 74.83888244628906 176.8795776367188 74.83026885986328 176.8781890869141 C 74.82695770263672 176.8776702880859 74.82650756835938 176.8775939941406 74.82319641113281 176.8770599365234 C 74.81458282470703 176.8756866455078 74.80390167236328 176.8739776611328 74.7952880859375 176.8725891113281 C 74.79198455810547 176.8720550537109 74.79046630859375 176.871826171875 74.78715515136719 176.8712921142578 C 74.77567291259766 176.8694458007812 74.77144622802734 176.8687591552734 74.75996398925781 176.8669128417969 C 74.75666046142578 176.8663940429688 74.75448608398438 176.8660430908203 74.75117492675781 176.8655090332031 C 74.74256134033203 176.8641204833984 74.73112487792969 176.8622741699219 74.72251129150391 176.8608856201172 C 74.72251129150391 176.8608856201172 74.72074890136719 176.8606109619141 74.72074890136719 176.8606109619141 C 74.67770385742188 176.8536682128906 74.63213348388672 176.8462829589844 74.589111328125 176.8392791748047 C 74.58745574951172 176.8390045166016 74.58462524414062 176.8385467529297 74.58296966552734 176.8382720947266 C 74.57436370849609 176.8368682861328 74.56416320800781 176.835205078125 74.55556488037109 176.8338012695312 C 74.55225372314453 176.8332672119141 74.54988861083984 176.8328857421875 74.54658508300781 176.8323364257812 C 74.53797912597656 176.8309326171875 74.52851104736328 176.8293914794922 74.51991271972656 176.8279724121094 C 74.51660919189453 176.8274383544922 74.51360321044922 176.8269500732422 74.51029968261719 176.8264007568359 C 74.50170135498047 176.8249969482422 74.49264526367188 176.8235168457031 74.48404693603516 176.8220977783203 C 74.48074340820312 176.8215637207031 74.47860717773438 176.8212127685547 74.47529602050781 176.8206634521484 C 74.43516540527344 176.8140716552734 74.38876342773438 176.8064270019531 74.34864044189453 176.7997894287109 C 74.3453369140625 176.7992401123047 74.34581756591797 176.79931640625 74.34251403808594 176.7987670898438 C 74.33391571044922 176.7973480224609 74.32484436035156 176.7958374023438 74.31624603271484 176.7944183349609 C 74.31294250488281 176.7938690185547 74.30958557128906 176.7933044433594 74.30628204345703 176.7927551269531 C 74.29769134521484 176.7913360595703 74.28942108154297 176.7899475097656 74.28083038330078 176.7885284423828 C 74.27752685546875 176.7879791259766 74.27322387695312 176.7872619628906 74.26992034912109 176.7867126464844 C 74.26132202148438 176.7852783203125 74.25253295898438 176.7838134765625 74.24393463134766 176.7823791503906 C 74.24228668212891 176.7821044921875 74.23700714111328 176.7812194824219 74.2353515625 176.7809448242188 C 74.22676086425781 176.7795104980469 74.21602630615234 176.7777099609375 74.20743560791016 176.7762756347656 C 74.20578765869141 176.7760009765625 74.203369140625 176.7756042480469 74.20171356201172 176.7753143310547 C 74.15875244140625 176.7681274414062 74.11328887939453 176.7604827880859 74.07035064697266 176.7532348632812 C 74.07035064697266 176.7532348632812 74.06818389892578 176.7528686523438 74.06818389892578 176.7528686523438 C 74.05673980712891 176.7509307861328 74.04878234863281 176.7495880126953 74.03733825683594 176.7476501464844 C 74.03568267822266 176.7473754882812 74.03409576416016 176.7471008300781 74.03244781494141 176.746826171875 C 74.02099609375 176.7448883056641 74.01457214355469 176.7437896728516 74.00312805175781 176.7418518066406 C 73.99982452392578 176.7412872314453 73.99971008300781 176.7412719726562 73.99641418457031 176.74072265625 C 73.98497009277344 176.73876953125 73.97867584228516 176.7377014160156 73.96723175048828 176.7357482910156 C 73.965576171875 176.7354736328125 73.96380615234375 176.7351684570312 73.962158203125 176.7348937988281 C 73.90779113769531 176.7256469726562 73.85427856445312 176.7164764404297 73.79994201660156 176.7071380615234 C 73.79664611816406 176.7065582275391 73.79481506347656 176.7062530517578 73.79151916503906 176.7056884765625 C 73.78007507324219 176.7037200927734 73.77536010742188 176.7028961181641 73.76392364501953 176.700927734375 C 73.76227569580078 176.7006378173828 73.75827789306641 176.699951171875 73.75662994384766 176.6996765136719 C 73.74519348144531 176.6976928710938 73.73892211914062 176.6966094970703 73.72748565673828 176.6946411132812 C 73.72583770751953 176.6943511962891 73.72390747070312 176.6940155029297 73.72225952148438 176.6937255859375 C 73.71082305908203 176.6917572021484 73.70278167724609 176.6903533935547 73.69134521484375 176.6883697509766 C 73.69134521484375 176.6883697509766 73.69012451171875 176.6881713867188 73.69012451171875 176.6881713867188 C 73.63295745849609 176.6782531738281 73.58051300048828 176.6691131591797 73.52338409423828 176.6590881347656 C 73.52173614501953 176.6587982177734 73.51911926269531 176.6583404541016 73.51747131347656 176.6580505371094 C 73.50605010986328 176.6560516357422 73.49900054931641 176.6548156738281 73.48757171630859 176.6528015136719 C 73.48592376708984 176.6525115966797 73.48474884033203 176.6523132324219 73.48310089111328 176.6520233154297 C 73.4716796875 176.6500091552734 73.46286773681641 176.6484527587891 73.45144653320312 176.6464538574219 C 73.45144653320312 176.6464538574219 73.45032501220703 176.6462554931641 73.45032501220703 176.6462554931641 C 73.39321136474609 176.6361846923828 73.33982086181641 176.6267242431641 73.28273773193359 176.6165618896484 C 73.28109741210938 176.6162567138672 73.28026580810547 176.6161193847656 73.27862548828125 176.6158142089844 C 73.27006530761719 176.6142883300781 73.25946044921875 176.6123962402344 73.25090026855469 176.6108703613281 C 73.24761199951172 176.6102905273438 73.24441528320312 176.6097106933594 73.24112701416016 176.609130859375 C 73.23256683349609 176.6076049804688 73.22364044189453 176.6060028076172 73.21508026123047 176.6044769287109 C 73.21343994140625 176.6041717529297 73.20794677734375 176.6031951904297 73.206298828125 176.6029052734375 C 73.19773864746094 176.6013641357422 73.18695068359375 176.5994262695312 73.17839050292969 176.597900390625 C 73.17674255371094 176.5975952148438 73.17512512207031 176.5973052978516 73.17348480224609 176.5970153808594 C 73.12783813476562 176.5888214111328 73.08673858642578 176.5814208984375 73.04111480712891 176.5731506347656 C 73.04111480712891 176.5731506347656 73.03990936279297 176.5729370117188 73.03990936279297 176.5729370117188 C 73.02851104736328 176.5708770751953 73.02082061767578 176.5694732666016 73.00941467285156 176.5674133300781 C 73.00777435302734 176.5671081542969 73.00566101074219 176.5667266845703 73.00402069091797 176.5664367675781 C 72.99261474609375 176.5643615722656 72.98729705810547 176.5634002685547 72.97589874267578 176.5613250732422 C 72.97261047363281 176.5607299804688 72.97093200683594 176.5604248046875 72.96764373779297 176.5598297119141 C 72.95624542236328 176.5577545166016 72.95087432861328 176.5567779541016 72.93947601318359 176.5546875 C 72.93782806396484 176.5543975830078 72.93540954589844 176.553955078125 72.93376922607422 176.5536499023438 C 72.92236328125 176.5515747070312 72.91486358642578 176.5502014160156 72.90346527099609 176.5481262207031 C 72.90346527099609 176.5481262207031 72.90277862548828 176.5480041503906 72.90277862548828 176.5480041503906 C 72.85718536376953 176.5396728515625 72.81458282470703 176.5318603515625 72.76901245117188 176.5234527587891 C 72.76737213134766 176.5231475830078 72.76726531982422 176.5231323242188 72.765625 176.5228271484375 C 72.75423431396484 176.5207366943359 72.74678802490234 176.5193634033203 72.73539733886719 176.5172576904297 C 72.73375701904297 176.5169525146484 72.73188781738281 176.5166015625 72.73024749755859 176.5162963867188 C 72.71885681152344 176.5141906738281 72.712890625 176.5130920410156 72.70149993896484 176.510986328125 C 72.69985961914062 176.5106811523438 72.69536590576172 176.5098571777344 72.6937255859375 176.5095520019531 C 72.68518829345703 176.5079650878906 72.67372131347656 176.5058441162109 72.66517639160156 176.5042572021484 C 72.66353607177734 176.5039520263672 72.66287231445312 176.5038299560547 72.66123199462891 176.5035247802734 C 72.60428619384766 176.4929656982422 72.55249786376953 176.4833068847656 72.49559020996094 176.4726257324219 C 72.49559020996094 176.4726257324219 72.49217987060547 176.4719848632812 72.49217987060547 176.4719848632812 C 72.48079681396484 176.4698486328125 72.47309112548828 176.4684143066406 72.46171569824219 176.4662628173828 C 72.46007537841797 176.4659576416016 72.45812225341797 176.4655914306641 72.45648193359375 176.4652862548828 C 72.44509887695312 176.4631500244141 72.43886566162109 176.4619750976562 72.427490234375 176.4598236083984 C 72.42584991455078 176.4595184326172 72.42243194580078 176.4588775634766 72.42079162597656 176.4585723876953 C 72.35252380371094 176.4457092285156 72.29067993164062 176.4339904785156 72.22246551513672 176.4209747314453 C 72.22083282470703 176.420654296875 72.22041320800781 176.4205780029297 72.21877288818359 176.4202575683594 C 72.20740509033203 176.4180908203125 72.1993408203125 176.4165496826172 72.18797302246094 176.4143829345703 C 72.18634033203125 176.4140625 72.18553161621094 176.4139099121094 72.18389129638672 176.4136047363281 C 72.17252349853516 176.4114227294922 72.16471099853516 176.4099273681641 72.15335083007812 176.4077606201172 C 72.15171051025391 176.4074401855469 72.15046691894531 176.4071960449219 72.14882659912109 176.4068908691406 C 72.09199523925781 176.39599609375 72.040771484375 176.3861389160156 71.98398590087891 176.3751373291016 C 71.98398590087891 176.3751373291016 71.98052215576172 176.3744659423828 71.98052215576172 176.3744659423828 C 71.96916961669922 176.3722686767578 71.96278381347656 176.3710327148438 71.95142364501953 176.3688201904297 C 71.94815063476562 176.3681945800781 71.94728851318359 176.3680267333984 71.94401550292969 176.3673858642578 C 71.93265533447266 176.3651885986328 71.92741394042969 176.3641662597656 71.91606140136719 176.3619537353516 C 71.91442108154297 176.3616333007812 71.91075134277344 176.3609313964844 71.90911102294922 176.3606109619141 C 71.90059661865234 176.3589477539062 71.88890838623047 176.3566741943359 71.88039398193359 176.3550109863281 C 71.87875366210938 176.3546905517578 71.87812805175781 176.3545684814453 71.87649536132812 176.3542633056641 C 71.83107757568359 176.3454132080078 71.79184722900391 176.3377227783203 71.7464599609375 176.3288116455078 C 71.74481964111328 176.3284912109375 71.74388122558594 176.3283081054688 71.74224090576172 176.3279876708984 C 71.73089599609375 176.3257598876953 71.72322845458984 176.3242492675781 71.71188354492188 176.3220062255859 C 71.71025085449219 176.3216857910156 71.70923614501953 176.3214874267578 71.70760345458984 176.3211669921875 C 71.69625854492188 176.3189392089844 71.68942260742188 176.3175964355469 71.67807769775391 176.3153533935547 C 71.67644500732422 176.3150329589844 71.67319488525391 176.3143920898438 71.67155456542969 176.3140716552734 C 71.66020965576172 176.3118286132812 71.65362548828125 176.3105316162109 71.64228057861328 176.3082885742188 C 71.64064788818359 176.3079528808594 71.64012145996094 176.307861328125 71.63848876953125 176.3075256347656 C 71.58460998535156 176.296875 71.52944183349609 176.2859191894531 71.47560119628906 176.2751617431641 C 71.47233581542969 176.2745056152344 71.47233581542969 176.2745056152344 71.46906280517578 176.2738647460938 C 71.45773315429688 176.2715911865234 71.45213317871094 176.2704772949219 71.4407958984375 176.2682037353516 C 71.43753051757812 176.2675476074219 71.43711090087891 176.2674713134766 71.43384552001953 176.2668151855469 C 71.42250823974609 176.2645416259766 71.41669464111328 176.2633819580078 71.40536499023438 176.2611083984375 C 71.40373229980469 176.2607879638672 71.40134429931641 176.2602996826172 71.39971160888672 176.2599792480469 C 71.33172607421875 176.246337890625 71.27022552490234 176.2339324951172 71.20229339599609 176.2201385498047 C 71.20066070556641 176.2198181152344 71.19884490966797 176.2194366455078 71.19721221923828 176.2191162109375 C 71.18589019775391 176.2168121337891 71.17863464355469 176.21533203125 71.16732025146484 176.2130432128906 C 71.16568756103516 176.2127075195312 71.16455078125 176.2124786376953 71.16291809082031 176.2121429443359 C 71.15159606933594 176.2098388671875 71.14379119873047 176.208251953125 71.13246917724609 176.2059478759766 C 71.13084411621094 176.2056121826172 71.13021850585938 176.2054901123047 71.12858581542969 176.2051544189453 C 71.07199096679688 176.1936187744141 71.01936340332031 176.1828308105469 70.96280670166016 176.1711883544922 C 70.96280670166016 176.1711883544922 70.96104431152344 176.1708221435547 70.96104431152344 176.1708221435547 C 70.94972991943359 176.1685028076172 70.94092559814453 176.1666870117188 70.92961120605469 176.1643524169922 C 70.92798614501953 176.1640167236328 70.927734375 176.1639709472656 70.92610931396484 176.1636352539062 C 70.914794921875 176.1613006591797 70.90546417236328 176.1593627929688 70.89415740966797 176.1570281982422 C 70.89415740966797 176.1570281982422 70.89295959472656 176.1567840576172 70.89295959472656 176.1567840576172 C 70.88165283203125 176.1544494628906 70.87124633789062 176.1522979736328 70.85993957519531 176.1499481201172 C 70.85993957519531 176.1499481201172 70.85935211181641 176.1498260498047 70.85935211181641 176.1498260498047 C 70.80281829833984 176.1381225585938 70.74771118164062 176.1266632080078 70.69122314453125 176.1148376464844 C 70.69122314453125 176.1148376464844 70.68968963623047 176.1145172119141 70.68968963623047 176.1145172119141 C 70.67839050292969 176.1121673583984 70.66975402832031 176.1103515625 70.65846252441406 176.1079864501953 C 70.65682983398438 176.1076507568359 70.6556396484375 176.1073913574219 70.65401458740234 176.1070556640625 C 70.58623504638672 176.0928497314453 70.52149200439453 176.0792083740234 70.45376586914062 176.0648498535156 C 70.45214080810547 176.0645141601562 70.45446014404297 176.0650024414062 70.45283508300781 176.0646514892578 C 70.44155120849609 176.062255859375 70.43193054199219 176.0602264404297 70.42064666748047 176.0578308105469 C 70.41902160644531 176.0574798583984 70.41970825195312 176.0576171875 70.41807556152344 176.0572814941406 C 70.40679168701172 176.0548858642578 70.39813995361328 176.0530395507812 70.38685607910156 176.0506439208984 C 70.38523101806641 176.05029296875 70.38497161865234 176.0502319335938 70.38333892822266 176.0498962402344 C 70.29306793212891 176.0306854248047 70.20494842529297 176.0117797851562 70.11477661132812 175.9922943115234 C 70.11477661132812 175.9922943115234 70.11457824707031 175.9922637939453 70.11457824707031 175.9922637939453 C 70.04695129394531 175.9776458740234 69.98056030273438 175.9632263183594 69.91298675537109 175.9484558105469 C 69.91136932373047 175.9481048583984 69.91273498535156 175.9483947753906 69.91110992431641 175.9480438232422 C 49.46197509765625 171.4793701171875 31.64346313476562 159.9816284179688 19.11259460449219 144.1126251220703 C 17.06843566894531 141.5126800537109 17.51365661621094 137.7472991943359 20.11032104492188 135.6961364746094 C 22.71061706542969 133.6420745849609 26.48371887207031 134.0849304199219 28.53775024414062 136.6852111816406 C 43.2540283203125 155.315185546875 65.29167938232422 166 89 166 C 131.4579315185547 166 166 131.4579315185547 166 89 C 166 46.54206848144531 131.4579315185547 12 89 12 C 85.68628692626953 12 83 9.313720703125 83 6 C 83 2.686279296875 85.68628692626953 0 89 0 C 89 0 89 0 89 0 Z" stroke="none" fill="#d3924d"/>
    </g>
    <g id="Ellipse_239" data-name="Ellipse 239" transform="translate(560 6613)" fill="#d3924d" stroke="#fff" stroke-width="1.5">
      <circle cx="13" cy="13" r="13" stroke="none"/>
      <circle cx="13" cy="13" r="12.25" fill="none"/>
    </g>
  </g>
</svg>
