<svg xmlns="http://www.w3.org/2000/svg" width="80" height="91.668" viewBox="0 0 80 91.668">
  <g id="XMLID_142_" transform="translate(-34 -1.15)">
    <path id="XMLID_275_" d="M74,55.914V87.377a33.743,33.743,0,0,0,67.485,0V55.914L107.743,41.9Zm54.984,15.465a3.661,3.661,0,0,1-1.033,5.088l-26.57,17.614a1.173,1.173,0,0,1-.258.147l-.111.055a1.1,1.1,0,0,0-.147.073l-.111.055-.166.055c-.037.018-.074.018-.111.037l-.166.055c-.037.018-.074.018-.111.037-.055.018-.129.018-.184.037-.037,0-.055.018-.092.018a.9.9,0,0,1-.221.018H99.63c-.092,0-.184.018-.3.018H99.04a.361.361,0,0,1-.129-.018.167.167,0,0,1-.092-.018c-.037,0-.092-.018-.129-.018s-.055-.018-.074-.018a.343.343,0,0,1-.129-.037c-.018,0-.055-.018-.074-.018-.037-.018-.092-.018-.129-.037-.018,0-.055-.018-.074-.018a.343.343,0,0,0-.129-.037c-.018,0-.055-.018-.074-.018-.037-.018-.092-.037-.129-.055-.018-.018-.037-.018-.055-.037a.462.462,0,0,1-.129-.073c-.019-.018-.037-.018-.055-.037-.055-.018-.092-.055-.148-.073-.018-.018-.037-.018-.055-.037a1.7,1.7,0,0,0-.148-.092c-.018,0-.018-.018-.037-.018-.055-.037-.111-.092-.166-.129-.037-.018-.055-.055-.092-.073a.144.144,0,0,1-.074-.073c-.037-.018-.055-.055-.092-.092-.018-.018-.055-.037-.074-.073l-.092-.092c-.018-.018-.037-.055-.074-.073-.018-.037-.055-.055-.074-.092-.018-.018-.037-.037-.037-.055L88.2,83.061a3.68,3.68,0,0,1,5.753-4.592l6.159,7.641,23.767-15.741A3.675,3.675,0,0,1,128.984,71.379Z" transform="translate(-33.743 -34.375)" fill="none"/>
    <path id="XMLID_290_" d="M110.5,15.9,76.224,1.607a5.593,5.593,0,0,0-4.43,0L37.534,15.885A5.723,5.723,0,0,0,34,21.159v31.7a40,40,0,0,0,80,0v-31.7a5.712,5.712,0,0,0-3.5-5.256Zm-3.677,36.969a32.825,32.825,0,0,1-65.65,0V22.146L74,8.459l32.825,13.686Z" transform="translate(0 0)" fill="#311718"/>
    <path id="XMLID_291_" d="M152.182,201.238a3.127,3.127,0,1,0-4.881,3.911l7.008,8.745c.016.016.031.031.031.047.016.031.047.047.063.078.016.016.031.047.063.063l.078.078c.016.016.047.031.063.063l.078.078.063.063c.031.016.047.047.078.063.047.031.094.078.141.11.016,0,.016.016.031.016a1.435,1.435,0,0,0,.125.078c.016.016.031.016.047.031.047.016.078.047.125.063.016.016.031.016.047.031a.391.391,0,0,1,.109.063c.016.016.031.016.047.031.031.016.078.031.11.047.016,0,.031.016.063.016a.289.289,0,0,0,.109.031c.016,0,.047.016.063.016.031.016.078.016.109.031.016,0,.047.016.063.016.031.016.078.016.109.031.016,0,.047.016.063.016.031,0,.078.016.109.016a.14.14,0,0,1,.078.016.306.306,0,0,1,.11.016h.25a1.433,1.433,0,0,0,.25-.016h.063c.063,0,.125-.016.188-.016.031,0,.047-.016.078-.016.047-.016.109-.016.156-.031a.223.223,0,0,0,.094-.031l.141-.047c.031-.016.063-.016.094-.031l.141-.047.094-.047a.94.94,0,0,0,.125-.063l.094-.047c.078-.047.141-.078.219-.125L181.012,199.6a3.126,3.126,0,0,0-3.457-5.209l-20.164,13.406Z" transform="translate(-89.694 -156.548)" fill="#311718"/>
  </g>
</svg>
