<svg xmlns="http://www.w3.org/2000/svg" width="86.007" height="76.772" viewBox="0 0 86.007 76.772">
  <path id="Path_1889" data-name="Path 1889" d="M2101.006,2022.04a12.318,12.318,0,0,1,6.481-2.134,12.2,12.2,0,0,1,11.365,6.605,12.225,12.225,0,0,1,1.354,6.688,37.467,37.467,0,0,1-15.344,1.969,24.521,24.521,0,0,0-3.856-13.129,24.669,24.669,0,0,0-41.52,0m45.376,13.129v.123a20.521,20.521,0,0,1-.164,2.749,49.362,49.362,0,0,1-48.9,0,22.821,22.821,0,0,1-.164-2.872m0,0a36.778,36.778,0,0,1-15.345-1.969,12.587,12.587,0,0,1,1.354-6.688,12.373,12.373,0,0,1,4.718-4.923,12.249,12.249,0,0,1,13.129.451m-3.857,13.129a24.5,24.5,0,0,1,3.857-13.129m33.068-35.981a12.326,12.326,0,1,1-3.61-8.7A12.3,12.3,0,0,1,2092.554,1986.058Zm24.617,12.308a9.324,9.324,0,0,1-.7,3.528,9.347,9.347,0,0,1-5,5.006,9.283,9.283,0,0,1-7.058,0,9.346,9.346,0,0,1-5-5.006,9.347,9.347,0,0,1-.7-3.528,9.231,9.231,0,0,1,18.462,0Zm-55.387,0a9.31,9.31,0,0,1-.7,3.528,9.34,9.34,0,0,1-5,5.006,9.278,9.278,0,0,1-7.056,0,9.338,9.338,0,0,1-5.005-5.006,9.231,9.231,0,1,1,17.764-3.528Z" transform="translate(-2037.249 -1970.75)" fill="none" stroke="#311718" stroke-linecap="round" stroke-linejoin="round" stroke-width="6"/>
</svg>
