<svg xmlns="http://www.w3.org/2000/svg" width="82" height="74" viewBox="0 0 82 74">
  <path id="Mask" d="M41,74c-1.283,0-3.532-.54-4.287-1.7-3.095-4.752-6.75-7.33-11.175-7.88a15.524,15.524,0,0,0-1.929-.117c-4.226,0-9.384,1.565-15.331,4.652a5.536,5.536,0,0,1-2.557.631A5.612,5.612,0,0,1,2.9,68.82,5.281,5.281,0,0,1,.226,64.276C-.22,12.955,0,12.629.823,11.416A26.235,26.235,0,0,1,22.7,0,26.436,26.436,0,0,1,41,7.2,26.749,26.749,0,0,1,81.18,11.416c.819,1.214,1.039,1.541.593,52.86a5.266,5.266,0,0,1-2.681,4.544,5.532,5.532,0,0,1-5.375.136c-5.944-3.087-11.1-4.652-15.326-4.652a15.5,15.5,0,0,0-1.928.117c-4.43.551-8.086,3.128-11.178,7.88C44.558,73.416,42.58,74,41,74ZM59.3,6.715a19.58,19.58,0,0,0-14.757,6.536c-.15,2.109-.453,11.152,0,49.454A20.488,20.488,0,0,1,55.6,57.767a22.941,22.941,0,0,1,2.843-.174c4.893,0,10.293,1.455,16.508,4.449.292-34.495.2-44.908.071-47.568A19.527,19.527,0,0,0,59.3,6.715ZM23.559,57.593a22.978,22.978,0,0,1,2.845.174A20.445,20.445,0,0,1,37.456,62.7c.453-38.278.151-47.336,0-49.454A19.581,19.581,0,0,0,22.7,6.715,19.511,19.511,0,0,0,6.982,14.474C6.875,16.682,6.74,25.8,7.05,62.042,13.267,59.047,18.669,57.593,23.559,57.593Z" fill="#311718"/>
</svg>
