<svg xmlns="http://www.w3.org/2000/svg" width="630.814" height="324.041" viewBox="0 0 630.814 324.041">
  <g id="Group_4191" data-name="Group 4191" transform="translate(-1148.832 -4618.5)">
    <g id="Group_4162" data-name="Group 4162" transform="translate(786.524 4616.294)">
      <path id="Path_1846" data-name="Path 1846" d="M458.375,127.385c-5.817-5.768-11.076-11.556-18.718-15.027-23.274-10.568-53.9-6.945-70.215,14.207-28.788,37.326,22.647,71.115,52.837,82.025a205.05,205.05,0,0,0,39.9,9.761c5.363.785,5.01-2.022,6.244-2.35,1.965-.425-2.2,0-2.2,0" transform="translate(2 -70.224)" fill="none" stroke="#fefefe" stroke-miterlimit="10" stroke-width="1" stroke-dasharray="4"/>
      <path id="Path_1851" data-name="Path 1851" d="M360.976,106.646c26.331-.314,54.2,1.789,79.42,10.9,25.45,9.2,68.807,37.679,44.54,69.144-13.752,17.831-39.57,20.885-59.189,11.976-6.442-2.926-10.876-7.805-15.779-12.667" transform="translate(500.404 93.253)" fill="none" stroke="#fefefe" stroke-miterlimit="10" stroke-width="1" stroke-dasharray="4"/>
      <g id="Group_4161" data-name="Group 4161" transform="translate(431.832 33.617)">
        <path id="Path_1847" data-name="Path 1847" d="M427.166,183.58l10.851,6.262-8.478,5.542Z" transform="translate(-410.464 -177.151)" fill="#cac5d5"/>
        <path id="Path_1848" data-name="Path 1848" d="M423.074,182.827l5.29,19.506,4.528-10.141,21.946-9.86,23.346-22.5-38.822,9.839Z" transform="matrix(0.454, 0.891, -0.891, 0.454, -11.518, -457.634)" fill="#ccd7f0"/>
        <path id="Path_1849" data-name="Path 1849" d="M430.669,192.192l12.354,16.57,32.938-48.928Z" transform="matrix(0.454, 0.891, -0.891, 0.454, -10.509, -455.654)" fill="#fefefe"/>
        <path id="Path_1850" data-name="Path 1850" d="M425.657,182.827l55.111-22.993-66.523,6.542Z" transform="matrix(0.454, 0.891, -0.891, 0.454, -12.691, -459.936)" fill="#fefefe"/>
      </g>
      <g id="Group_4163" data-name="Group 4163" transform="translate(878.356 257.857)">
        <path id="Path_1847-2" data-name="Path 1847" d="M436.313,193.531l-9.147-5.279,7.147-4.672Z" transform="translate(-394.316 -157.705)" fill="#cac5d5"/>
        <path id="Path_1848-2" data-name="Path 1848" d="M469.53,179.216l-4.459,16.443-3.817-8.548-18.5-8.312-19.68-18.965,32.726,8.294Z" transform="translate(-423.074 -159.834)" fill="#ccd7f0"/>
        <path id="Path_1849-2" data-name="Path 1849" d="M468.849,187.111l-10.414,13.968-27.766-41.245Z" transform="translate(-430.67 -159.834)" fill="#fefefe"/>
        <path id="Path_1850-2" data-name="Path 1850" d="M460.7,179.216l-46.456-19.383,56.077,5.515Z" transform="translate(-414.245 -159.834)" fill="#fefefe"/>
      </g>
    </g>
    <g id="Group_4168" data-name="Group 4168" transform="translate(702.707 6599.719)">
      <path id="Path_1852" data-name="Path 1852" d="M646.1-1836q2.905,2.907,5.454,5.287,1.413,1.32,2.78,2.558a11.364,11.364,0,0,0,2.884-7.6,11.349,11.349,0,0,0-3.279-8.014h0l-.037-.037a11.348,11.348,0,0,0-8.051-3.317,11.356,11.356,0,0,0-7.6,2.884q1.236,1.368,2.558,2.78Q643.2-1838.905,646.1-1836Z" transform="translate(0.001 0)" fill="none"/>
      <path id="Path_1853" data-name="Path 1853" d="M615.767-1860.21c.2.1.41.2.607.322a9.133,9.133,0,0,1,2.9,2.83q4.035,6.131,8.67,11.831l4.217-4.216a19.307,19.307,0,0,1,13.694-5.654h0a19.319,19.319,0,0,1,13.006,5l.05.017.638.638a19.309,19.309,0,0,1,5.654,13.693,19.31,19.31,0,0,1-5.654,13.693l-4.169,4.17q5.487,4.407,11.365,8.294a9.12,9.12,0,0,1,2.829,2.9c.119.2.219.4.322.607a16.225,16.225,0,0,1,8.958-2.681,16.224,16.224,0,0,1,11.5,4.75l.982.982v.091a16.24,16.24,0,0,1,3.768,10.431,16.224,16.224,0,0,1-4.75,11.5L642.6-1733.252a16.225,16.225,0,0,1-11.505,4.75,16.219,16.219,0,0,1-11.5-4.75,16.223,16.223,0,0,1-4.75-11.5,16.209,16.209,0,0,1,2.685-8.966c-.2-.1-.408-.2-.6-.321a9.12,9.12,0,0,1-2.9-2.829q-3.873-5.883-8.3-11.37l-1.484,1.484.067,99.247h13.685a16.207,16.207,0,0,1-1.342-6.435,16.214,16.214,0,0,1,4.777-11.5,16.222,16.222,0,0,1,11.493-4.777h1.841a16.213,16.213,0,0,1-3.146-9.566,16.221,16.221,0,0,1,4.777-11.493,16.224,16.224,0,0,1,11.494-4.777h72.487a16.218,16.218,0,0,1,11.494,4.777,16.222,16.222,0,0,1,4.777,11.493,16.213,16.213,0,0,1-3.15,9.565h1.845a16.22,16.22,0,0,1,11.488,4.777,16.222,16.222,0,0,1,4.777,11.493,16.206,16.206,0,0,1-1.343,6.439H936.432l-.139-208.743H902.94l-132.652,126.9a4.638,4.638,0,0,1-3.254,1.318,4.724,4.724,0,0,1-3.336-1.387L636.645-1876.244H616.817a16.2,16.2,0,0,1,1.632,7.074A16.227,16.227,0,0,1,615.767-1860.21Z" transform="translate(0 0)" fill="none"/>
      <path id="Path_1854" data-name="Path 1854" d="M621.552-1744.754a9.535,9.535,0,0,0,2.786,6.764,9.535,9.535,0,0,0,6.764,2.786,9.541,9.541,0,0,0,6.765-2.786l47.756-47.757a9.533,9.533,0,0,0,2.786-6.764,9.542,9.542,0,0,0-2.785-6.764l-.016-.015a9.534,9.534,0,0,0-6.749-2.771,9.535,9.535,0,0,0-6.765,2.786h0l-47.756,47.756A9.535,9.535,0,0,0,621.552-1744.754Z" transform="translate(0.001 0)" fill="none"/>
      <path id="Path_1855" data-name="Path 1855" d="M727.126-1693.032a9.535,9.535,0,0,0,2.812-6.754,9.531,9.531,0,0,0-2.812-6.753,9.536,9.536,0,0,0-6.754-2.813H647.885a9.536,9.536,0,0,0-6.754,2.813,9.53,9.53,0,0,0-2.812,6.753,9.535,9.535,0,0,0,2.812,6.754,9.536,9.536,0,0,0,6.754,2.812h72.487A9.538,9.538,0,0,0,727.126-1693.032Z" transform="translate(0.001 0)" fill="none"/>
      <path id="Path_1856" data-name="Path 1856" d="M547.675-1828.182a9.535,9.535,0,0,0-2.786,6.765,9.532,9.532,0,0,0,2.771,6.749l.015.015a9.532,9.532,0,0,0,6.764,2.786,9.54,9.54,0,0,0,6.764-2.786l33.432-33.433-.018-27.039Z" transform="translate(0 0)" fill="none"/>
      <path id="Path_1857" data-name="Path 1857" d="M586.305-1786.942q-1.419-1.328-2.792-2.568h0L481.8-1687.795a11.345,11.345,0,0,0-3.317,8.051,11.345,11.345,0,0,0,3.3,8.033l.018.019a11.356,11.356,0,0,0,8.051,3.332v-.016a11.348,11.348,0,0,0,8.051-3.316l96.783-96.786-.007-10.209q-1.387-1.434-2.919-2.968Q588.853-1784.563,586.305-1786.942Z" transform="translate(0 0)" fill="none"/>
      <path id="Path_1858" data-name="Path 1858" d="M604.178-1857.629l4.781-4.781a9.543,9.543,0,0,0,2.786-6.764,9.542,9.542,0,0,0-2.785-6.764c-.109-.108-.226-.2-.339-.306h-4.455Z" transform="translate(0 0)" fill="none"/>
      <path id="Path_1859" data-name="Path 1859" d="M742.092-1680.7a9.536,9.536,0,0,0-6.754-2.812H720.467c-.034,0-.067.005-.1.005H647.88c-.034,0-.067-.005-.1-.005H632.919a9.535,9.535,0,0,0-6.754,2.812,9.534,9.534,0,0,0-2.812,6.753,9.526,9.526,0,0,0,2.53,6.444H742.374a9.533,9.533,0,0,0,2.53-6.443A9.539,9.539,0,0,0,742.092-1680.7Z" transform="translate(0.001 0.001)" fill="none"/>
      <path id="Path_1860" data-name="Path 1860" d="M633.81-1886.075v-8.669l-15.562,8.669Z" transform="translate(0.001 0)" fill="none"/>
      <path id="Path_1861" data-name="Path 1861" d="M770.237-1970.72l-59.075,32.908h118.15Z" transform="translate(0.001 0)" fill="none"/>
      <path id="Path_1862" data-name="Path 1862" d="M902.654-1886.075h19.568l-19.568-10.889Z" transform="translate(0.001 0)" fill="none"/>
      <path id="Path_1863" data-name="Path 1863" d="M893.079-1927.982H643.386v44.75l123.715,123.5,126.128-120.656a6.185,6.185,0,0,1-.15-.762Z" transform="translate(0 0)" fill="none"/>
      <path id="Path_1864" data-name="Path 1864" d="M945.873-1881.152a6.085,6.085,0,0,1-.006.763,22.994,22.994,0,0,0-.32-2.409,6.294,6.294,0,0,0-.419-.832,3.36,3.36,0,0,0-.519-.763,4.728,4.728,0,0,0-.755-.659,5.7,5.7,0,0,0-.486-.433l-40.714-22.661v-24.76a4.852,4.852,0,0,0-4.778-4.906h-48.5l-76.862-42.808a4.644,4.644,0,0,0-4.561,0l-76.877,42.808H638.59a4.85,4.85,0,0,0-4.779,4.906v27.013l-.118.034L597.1-1885.486a5.723,5.723,0,0,0-.5.433,4.653,4.653,0,0,0-.755.659,3.6,3.6,0,0,0-.236.36,16.188,16.188,0,0,1,6.573-1.393,16.218,16.218,0,0,1,11.5,4.749,16.186,16.186,0,0,1,3.13,4.434h19.828L763.7-1749.419a4.724,4.724,0,0,0,3.336,1.387,4.638,4.638,0,0,0,3.254-1.318l132.652-126.9h33.353l.139,208.743L755.1-1667.9c-.218,5.081-4.79,10.19-9.067,10.218h195.2a4.853,4.853,0,0,0,4.78-4.907Zm-312.062-4.923H618.249l15.562-8.669Zm136.426-84.645,59.075,32.908H711.162ZM767.1-1759.732l-123.715-123.5v-44.75H893.08v46.831a6.185,6.185,0,0,0,.15.762Zm135.553-126.342v-10.889l19.568,10.889Z" transform="translate(0)" fill="#fff"/>
      <path id="Path_1865" data-name="Path 1865" d="M614.457-1667.508H604.306l-.067-93.211-9.546,9.546.061,88.588a4.841,4.841,0,0,0,4.774,4.907.511.511,0,0,1,0,.1h24.277C619.252-1657.714,614.279-1662.555,614.457-1667.508Z" transform="translate(0 0)" fill="#fff"/>
      <rect id="Rectangle_1498" data-name="Rectangle 1498" width="35.094" height="0.002" transform="matrix(0.999, -0.042, 0.042, 0.999, 564.702, -1825.473)" fill="#fff"/>
      <rect id="Rectangle_1499" data-name="Rectangle 1499" width="7.966" height="0.001" transform="translate(604.185 -1848.154) rotate(-45.001)" fill="#fff"/>
      <rect id="Rectangle_1500" data-name="Rectangle 1500" width="13.497" height="0.001" transform="translate(592.665 -1843.383)" fill="#fff"/>
      <path id="Path_1866" data-name="Path 1866" d="M609.812-1853.8v.013h.005l.1-.1C609.885-1853.858,609.844-1853.834,609.812-1853.8Z" transform="translate(0.001 0)" fill="#fff"/>
      <path id="Path_1867" data-name="Path 1867" d="M569.814-1813.8c-.021.02-.035.045-.055.065l.066-.065Z" transform="translate(0 0)" fill="#fff"/>
      <g id="Group_4167" data-name="Group 4167" transform="translate(467.293 -1881.148)">
        <path id="Path_1868" data-name="Path 1868" d="M636.232-1825.785c4.34,4.34,8.68,8.282,12.921,11.78.568.47,1.147.925,1.722,1.386l4.169-4.17a19.315,19.315,0,0,0,5.654-13.693,19.313,19.313,0,0,0-5.654-13.693l-.638-.638-.05-.017a19.325,19.325,0,0,0-13.007-5h0a19.311,19.311,0,0,0-13.693,5.654l-4.217,4.216c.338.418.669.842,1.011,1.256C627.953-1834.463,631.892-1830.125,636.232-1825.785Zm5.119-16.065a11.346,11.346,0,0,1,8.05,3.317l.037.037h0a11.349,11.349,0,0,1,3.279,8.014,11.365,11.365,0,0,1-2.884,7.6q-1.368-1.238-2.78-2.558-2.548-2.381-5.454-5.287t-5.287-5.454q-1.322-1.411-2.559-2.78A11.364,11.364,0,0,1,641.351-1841.85Z" transform="translate(-467.292 1881.148)" fill="#fff"/>
        <path id="Path_1869" data-name="Path 1869" d="M685.4-1799.681v-.09l-.97-.97a16.023,16.023,0,0,0-11.358-4.691,16.025,16.025,0,0,0-8.847,2.648c-.1-.2-.2-.4-.318-.6a9.019,9.019,0,0,0-2.794-2.864q-5.807-3.822-11.225-8.191l-.654.654-2.78-2.425q-2.948-2.567-5.7-5.141-3-2.8-5.6-5.405t-5.405-5.6q-2.569-2.744-5.136-5.7l-2.425-2.78.607-.607q-4.563-5.631-8.564-11.685a9.022,9.022,0,0,0-2.864-2.8c-.195-.118-.4-.216-.6-.318a16.024,16.024,0,0,0,2.649-8.849,16,16,0,0,0-1.612-6.987,15.979,15.979,0,0,0-3.091-4.379,16.022,16.022,0,0,0-11.358-4.69,16,16,0,0,0-6.492,1.376,16.02,16.02,0,0,0-4.866,3.314l-47.166,47.167.008.008a16.018,16.018,0,0,0-4.691,11.358,16.021,16.021,0,0,0,4.691,11.358l.97.97h.09a16.038,16.038,0,0,0,10.3,3.721,16.018,16.018,0,0,0,8.847-2.649c.1.2.2.407.32.6a8.988,8.988,0,0,0,2.794,2.864q6.053,3.985,11.683,8.561l-69.6,69.6-31.366,31.366A19.069,19.069,0,0,0,467.293-1678a19.072,19.072,0,0,0,5.584,13.528l.415.415.031.015a19.081,19.081,0,0,0,13.079,5.136v.016a19.072,19.072,0,0,0,13.524-5.584l90.026-90.032,9.428-9.429,1.466-1.466q4.356,5.422,8.2,11.229a9.028,9.028,0,0,0,2.864,2.794c.194.117.4.215.6.317a16.021,16.021,0,0,0-2.653,8.855,16.023,16.023,0,0,0,4.691,11.358,16.019,16.019,0,0,0,11.358,4.691,16.024,16.024,0,0,0,11.363-4.691l47.166-47.168a16.021,16.021,0,0,0,4.691-11.358A16.04,16.04,0,0,0,685.4-1799.681Zm-128.523-11.566a9.422,9.422,0,0,1-6.681,2.752,9.414,9.414,0,0,1-6.68-2.752l-.015-.015a9.414,9.414,0,0,1-2.737-6.666,9.417,9.417,0,0,1,2.752-6.681l46.363-46.363.8-.8a9.414,9.414,0,0,1,6.68-2.751,9.41,9.41,0,0,1,6.347,2.449c.112.1.228.2.335.3a9.424,9.424,0,0,1,2.751,6.681,9.419,9.419,0,0,1-2.752,6.68l-4.722,4.722h0l-9.425,9.425h0Zm33.069,45.6-95.588,95.59a11.208,11.208,0,0,1-7.952,3.275v.016a11.216,11.216,0,0,1-7.952-3.291l-.018-.019a11.205,11.205,0,0,1-3.259-7.934,11.2,11.2,0,0,1,3.276-7.952l100.456-100.46h0q1.356,1.225,2.758,2.536,2.517,2.35,5.388,5.222,1.516,1.517,2.883,2.931,1.225,1.267,2.339,2.456,1.31,1.4,2.537,2.758Zm25.4,8.623a2.468,2.468,0,0,1-.769-.777q-4.206-6.376-9.04-12.3c-.322-.4-.636-.8-.962-1.192-.27-.326-.553-.651-.827-.977l-.58-.666c-1.266-1.456-2.532-2.86-3.8-4.24-.445-.486-.892-.981-1.337-1.457q-2.8-3-5.406-5.6-1.3-1.3-2.7-2.646t-2.908-2.76q-2.748-2.568-5.7-5.136l-2.458-2.143c-.11-.091-.222-.179-.333-.269a153.857,153.857,0,0,0-12.756-9.406,2.471,2.471,0,0,1-.776-.77,2.457,2.457,0,0,1-.331-1.037,2.5,2.5,0,0,1,.116-1.1,2.434,2.434,0,0,1,.538-.838c.02-.02.034-.044.054-.064h.011l24.51-24.51,9.426-9.426,5.562-5.562h0v-.013c.032-.033.072-.056.106-.087a2.439,2.439,0,0,1,.8-.5,2.507,2.507,0,0,1,1.1-.117,2.464,2.464,0,0,1,1.037.331,2.481,2.481,0,0,1,.77.776,153.749,153.749,0,0,0,10,13.5c3.7,4.478,7.73,8.931,12.049,13.251s8.774,8.354,13.253,12.049a153.511,153.511,0,0,0,13.5,10,2.482,2.482,0,0,1,.776.77,2.458,2.458,0,0,1,.331,1.037,2.493,2.493,0,0,1-.117,1.1,2.432,2.432,0,0,1-.5.8c-.032.034-.055.074-.088.106h-.013l-39.5,39.5c-.012.012-.026.02-.038.031a2.44,2.44,0,0,1-.865.57,2.505,2.505,0,0,1-1.1.116A2.473,2.473,0,0,1,615.347-1757.02Zm64.412-25.679-47.166,47.167a9.423,9.423,0,0,1-6.681,2.752,9.413,9.413,0,0,1-6.68-2.752,9.417,9.417,0,0,1-2.752-6.68,9.417,9.417,0,0,1,2.752-6.681L666.4-1796.06h0a9.417,9.417,0,0,1,6.681-2.752,9.42,9.42,0,0,1,6.666,2.737l.016.015a9.425,9.425,0,0,1,2.751,6.681A9.414,9.414,0,0,1,679.759-1782.7Z" transform="translate(-464.518 1881.148)" fill="#fff"/>
      </g>
      <path id="Path_1870" data-name="Path 1870" d="M632.919-1657.673H735.333c.033,0,.066-.005.1-.005H632.818C632.852-1657.678,632.885-1657.673,632.919-1657.673Z" transform="translate(0.001 0.001)" fill="#fff"/>
      <path id="Path_1871" data-name="Path 1871" d="M626.165-1680.7a9.535,9.535,0,0,1,6.754-2.812H647.78a16.224,16.224,0,0,1-11.389-4.772,16.122,16.122,0,0,1-1.631-1.928h-1.841a16.222,16.222,0,0,0-11.493,4.777,16.214,16.214,0,0,0-4.777,11.5,16.207,16.207,0,0,0,1.342,6.435h7.892a9.526,9.526,0,0,1-2.53-6.444A9.534,9.534,0,0,1,626.165-1680.7Z" transform="translate(0.001 0.001)" fill="#fff"/>
      <path id="Union_14" data-name="Union 14" d="M-182.881-6451.344a16.219,16.219,0,0,1-11.392-4.771,16.26,16.26,0,0,1-3.434-5.06h7.891c.095.1.183.212.283.309a9.541,9.541,0,0,0,6.754,2.813H-80.36a9.538,9.538,0,0,0,6.754-2.813c.1-.1.188-.2.283-.309a9.537,9.537,0,0,0,2.529-6.441,9.54,9.54,0,0,0-2.812-6.756,9.53,9.53,0,0,0-6.754-2.812h-87.559a16.244,16.244,0,0,1-11.389-4.775,16.453,16.453,0,0,1-1.632-1.926,16.226,16.226,0,0,1-3.145-9.565,16.237,16.237,0,0,1,4.777-11.5,16.24,16.24,0,0,1,11.493-4.777l4.95,0h67.538a16.215,16.215,0,0,1,11.495,4.777,16.23,16.23,0,0,1,4.777,11.492,16.2,16.2,0,0,1-3.151,9.565,16.438,16.438,0,0,1-1.63,1.926,16.212,16.212,0,0,1-7.057,4.155,16.207,16.207,0,0,0,7.057-4.152,16.225,16.225,0,0,0,1.632-1.931h1.844a16.244,16.244,0,0,1,11.488,4.777,16.235,16.235,0,0,1,4.777,11.495,16.229,16.229,0,0,1-1.343,6.438,16.26,16.26,0,0,1-3.434,5.06,16.226,16.226,0,0,1-11.394,4.771Zm8.312-48.861a9.537,9.537,0,0,0-2.812,6.754,9.545,9.545,0,0,0,2.812,6.755,9.554,9.554,0,0,0,6.754,2.812h72.488a9.561,9.561,0,0,0,6.755-2.812,9.537,9.537,0,0,0,2.81-6.755,9.528,9.528,0,0,0-2.81-6.754,9.529,9.529,0,0,0-6.755-2.812h-72.488A9.528,9.528,0,0,0-174.568-6500.205Z" transform="translate(815.699 4793.666)" fill="#fff" stroke="rgba(0,0,0,0)" stroke-miterlimit="10" stroke-width="1"/>
      <path id="Path_1874" data-name="Path 1874" d="M647.78-1683.517c.033,0,.066.005.1.005h72.487c.033,0,.066-.005.1-.005H647.78Z" transform="translate(0 0.001)" fill="#fff"/>
    </g>
    <circle id="Ellipse_219" data-name="Ellipse 219" cx="32" cy="32" r="32" transform="translate(1649 4644)" fill="none" stroke="#fff" stroke-width="5"/>
    <g id="icon_social_notifications_none_24px" data-name="icon/social/notifications_none_24px" transform="translate(1657.479 4652.479)">
      <rect id="Boundary" width="47.041" height="47.041" fill="none"/>
      <path id="_Color" data-name=" ↳Color" d="M19.521,42.541a4.649,4.649,0,0,1-4.88-4.365H24.4A4.649,4.649,0,0,1,19.521,42.541ZM39.041,36H0V33.814l4.88-4.363V18.542A14.3,14.3,0,0,1,7.753,9.686,13.629,13.629,0,0,1,15.86,4.755V3.273A3.487,3.487,0,0,1,19.521,0a3.487,3.487,0,0,1,3.661,3.273V4.755A13.61,13.61,0,0,1,31.3,9.694a14.313,14.313,0,0,1,2.865,8.848V29.451l4.88,4.363V36ZM19.521,8.725a9.559,9.559,0,0,0-7.159,2.88,10,10,0,0,0-2.6,6.937v13.09H29.28V18.542a10,10,0,0,0-2.6-6.937A9.556,9.556,0,0,0,19.521,8.725Z" transform="translate(4 2)" fill="#fff"/>
    </g>
  </g>
</svg>
