<svg id="Group_15869" data-name="Group 15869" xmlns="http://www.w3.org/2000/svg" width="15.477" height="18.982" viewBox="0 0 15.477 18.982">
  <path id="Path_1879" data-name="Path 1879" d="M149.786,319.272a4.219,4.219,0,0,0,.5,7.493,10.9,10.9,0,0,1-2.323,4.012,2.487,2.487,0,0,1-3.174.711,5.113,5.113,0,0,0-1.77-.456,5.212,5.212,0,0,0-1.966.443,5.524,5.524,0,0,1-1.132.313,1.956,1.956,0,0,1-1.481-.505,7.494,7.494,0,0,1-1.356-1.51,11.545,11.545,0,0,1-1.9-4.033,8.31,8.31,0,0,1,.019-4.986,4.789,4.789,0,0,1,3.071-3.115,4.248,4.248,0,0,1,3.04.21,7.409,7.409,0,0,0,1.115.373,1.365,1.365,0,0,0,.665-.052c.631-.192,1.249-.429,1.879-.626A4.49,4.49,0,0,1,149.786,319.272Z" transform="translate(-134.812 -312.821)" fill="#fff"/>
  <path id="Path_1880" data-name="Path 1880" d="M301.37,221.334c.258,2.15-1.746,4.63-3.768,4.328A4.14,4.14,0,0,1,301.37,221.334Z" transform="translate(-289.847 -221.334)" fill="#fff"/>
</svg>
