<svg xmlns="http://www.w3.org/2000/svg" width="29.01" height="30.033" viewBox="0 0 29.01 30.033">
  <g id="Group_16639" data-name="Group 16639" transform="translate(-1655.776 -2105.242)">
    <path id="Path_10522" data-name="Path 10522" d="M254.5,1861.71c.283-.108-7.923,5-12.607,4.937A18.023,18.023,0,0,0,254.5,1889.71a18.023,18.023,0,0,0,12.607-23.063h-.228C262.089,1866.647,254.426,1861.6,254.5,1861.71Z" transform="translate(1415.776 244.565)" fill="none" stroke="#d3924d" stroke-linecap="round" stroke-linejoin="round" stroke-width="2"/>
    <path id="Path_10523" data-name="Path 10523" d="M2586.776,1862.39a.35.35,0,0,1,.144-.172.364.364,0,0,1,.426,0,.35.35,0,0,1,.144.172l1.463,3.51a.328.328,0,0,0,.124.165.365.365,0,0,0,.2.069l3.791.309a.382.382,0,0,1,.22.673l-2.885,2.479a.335.335,0,0,0-.117.172.351.351,0,0,0-.014.206l.886,3.7a.4.4,0,0,1-.014.22.359.359,0,0,1-.137.178.35.35,0,0,1-.213.076.334.334,0,0,1-.213-.055l-3.249-1.985a.387.387,0,0,0-.4,0l-3.249,1.985a.334.334,0,0,1-.213.055.393.393,0,0,1-.213-.069.435.435,0,0,1-.137-.179.43.43,0,0,1-.014-.227l.886-3.7a.353.353,0,0,0-.014-.206.369.369,0,0,0-.11-.172l-2.891-2.479a.375.375,0,0,1-.117-.186.361.361,0,0,1,.13-.405.386.386,0,0,1,.206-.082l3.791-.309a.367.367,0,0,0,.2-.069.389.389,0,0,0,.131-.165Z" transform="translate(-916.854 251.625)" fill="#d3924d"/>
  </g>
</svg>
