<svg xmlns="http://www.w3.org/2000/svg" width="17.037" height="17.037" viewBox="0 0 17.037 17.037">
  <g id="Group_1429" data-name="Group 1429" transform="translate(-8)">
    <path id="linkedin" d="M15.821,32H1.213A1.222,1.222,0,0,0,0,33.228V47.809a1.222,1.222,0,0,0,1.213,1.228H15.821a1.225,1.225,0,0,0,1.217-1.228V33.228A1.225,1.225,0,0,0,15.821,32ZM5.149,46.6H2.624V38.473H5.153V46.6ZM3.887,37.362A1.464,1.464,0,1,1,5.351,35.9,1.465,1.465,0,0,1,3.887,37.362ZM14.615,46.6H12.09V42.648c0-.943-.019-2.156-1.312-2.156-1.316,0-1.517,1.027-1.517,2.088V46.6H6.735V38.473H9.158v1.11h.034a2.66,2.66,0,0,1,2.392-1.312c2.556,0,3.031,1.685,3.031,3.875Z" transform="translate(8 -32)" fill="#fff"/>
  </g>
</svg>
