<svg xmlns="http://www.w3.org/2000/svg" width="17.116" height="21.676" viewBox="0 0 17.116 21.676">
  <path id="Union_9" data-name="Union 9" d="M7.883,20.676a3.737,3.737,0,0,1-.513-.455c-1.353-1.74-2.715-3.473-4.032-5.235A20.168,20.168,0,0,1,.646,10.334,8.388,8.388,0,0,1,0,7.1,7.451,7.451,0,0,1,5.819.293C6.312.17,6.826.12,7.331.034c.05-.008.1-.023.149-.034H8.644c.439.068.884.115,1.317.208a7.615,7.615,0,0,1,6.086,6.066,8.057,8.057,0,0,1-.709,4.4,22.574,22.574,0,0,1-2.857,4.735c-1.263,1.673-2.561,3.324-3.853,4.979a1.9,1.9,0,0,1-.386.288ZM7.413,1.244A6.607,6.607,0,0,0,1.607,5.585,6.153,6.153,0,0,0,1.814,9.67a16.243,16.243,0,0,0,2.218,4.036C5.323,15.459,6.673,17.177,8,18.91a.644.644,0,0,0,.066.065c.031-.032.057-.056.076-.081,1.132-1.462,2.283-2.911,3.389-4.387a20.094,20.094,0,0,0,2.648-4.495,6.7,6.7,0,0,0,.547-3.521,6.521,6.521,0,0,0-6.68-5.273Q7.732,1.218,7.413,1.244Zm.638,10.088a3.951,3.951,0,0,1-4.02-3.866A3.954,3.954,0,0,1,8.073,3.623a3.95,3.95,0,0,1,4.019,3.865A3.953,3.953,0,0,1,8.06,11.332Zm0-6.424A2.64,2.64,0,0,0,5.375,7.468a2.642,2.642,0,0,0,2.684,2.579,2.64,2.64,0,0,0,2.69-2.573A2.638,2.638,0,0,0,8.061,4.908Z" transform="translate(0.5 0.5)" fill="#fff" stroke="rgba(0,0,0,0)" stroke-miterlimit="10" stroke-width="1"/>
</svg>
