<svg xmlns="http://www.w3.org/2000/svg" width="19.001" height="18.988" viewBox="0 0 19.001 18.988">
  <path id="Union_7" data-name="Union 7" d="M12.723,17.969a9.267,9.267,0,0,1-3.347-.986,17.889,17.889,0,0,1-5.962-4.655A16.316,16.316,0,0,1,.5,7.487,6.63,6.63,0,0,1,.016,4.672,2.776,2.776,0,0,1,.842,2.907l1.293-1.3L2.142,1.6a1.868,1.868,0,0,1,1.294-.559A1.8,1.8,0,0,1,4.711,1.6c.248.228.487.47.716.706.114.122.236.242.354.36L6.818,3.7a1.736,1.736,0,0,1,0,2.624L6.5,6.648c-.282.284-.572.58-.883.865A7.7,7.7,0,0,0,6.643,9.129a13.064,13.064,0,0,0,3.132,2.846c.11.068.239.133.376.2.094.049.193.1.292.152l1.2-1.2a1.835,1.835,0,0,1,1.3-.584,1.772,1.772,0,0,1,1.286.589l2.088,2.09a1.821,1.821,0,0,1,.586,1.3,1.887,1.887,0,0,1-.574,1.312c-.164.171-.33.335-.494.49a8.592,8.592,0,0,0-.666.688c0,.006-.012.011-.015.019a2.87,2.87,0,0,1-2.2.94C12.887,17.977,12.8,17.974,12.723,17.969ZM2.865,2.334l-1.3,1.293a1.737,1.737,0,0,0-.525,1.127A5.4,5.4,0,0,0,1.469,7.13a15.423,15.423,0,0,0,2.74,4.549,16.893,16.893,0,0,0,5.615,4.387,8.272,8.272,0,0,0,2.968.887c.057,0,.118,0,.175,0a1.834,1.834,0,0,0,1.43-.6,10.157,10.157,0,0,1,.735-.759c.164-.159.316-.3.464-.463a.75.75,0,0,0,0-1.188l-2.1-2.091-.008-.007a.769.769,0,0,0-.547-.277.86.86,0,0,0-.575.284l-1.3,1.3a.81.81,0,0,1-.578.261.836.836,0,0,1-.377-.094c-.015-.007-.03-.019-.045-.026-.111-.069-.24-.132-.377-.2-.152-.076-.311-.157-.468-.255A13.906,13.906,0,0,1,5.84,9.77l0,0a8.311,8.311,0,0,1-1.229-2A.339.339,0,0,1,4.6,7.733a.771.771,0,0,1,.2-.86c0-.007.012-.012.019-.019.331-.3.635-.6.955-.926.111-.107.217-.217.328-.327a.722.722,0,0,0,0-1.174L5.058,3.389c-.123-.126-.244-.247-.362-.369-.232-.238-.453-.463-.685-.68L4,2.331a.81.81,0,0,0-.555-.266A.864.864,0,0,0,2.865,2.334Zm12.73,12.8,0,0S15.593,15.132,15.6,15.132Zm-1.879-6.88A4.9,4.9,0,0,0,9.729,4.276a.506.506,0,0,1-.415-.592.516.516,0,0,1,.593-.416,5.912,5.912,0,0,1,4.825,4.811.514.514,0,0,1-.423.592.715.715,0,0,1-.087.007A.509.509,0,0,1,13.716,8.253ZM16.981,8.1a8.7,8.7,0,0,0-7.1-7.079.512.512,0,1,1,.167-1.01,9.734,9.734,0,0,1,7.944,7.923.5.5,0,0,1-.419.584.557.557,0,0,1-.087.007A.509.509,0,0,1,16.981,8.1Z" transform="translate(0.499 0.511)" fill="#fff" stroke="rgba(0,0,0,0)" stroke-miterlimit="10" stroke-width="1"/>
</svg>
